<svg xmlns="http://www.w3.org/2000/svg" width="46.438" height="39.765" viewBox="0 0 46.438 39.765">
  <path id="camera" d="M-11970.632-3841.735a5.388,5.388,0,0,1-5.368-5.368v-21.568a5.386,5.386,0,0,1,5.368-5.365h9.089l.775-3.724a4.131,4.131,0,0,1,4.012-3.24h7.448a4.092,4.092,0,0,1,4.013,3.24l.772,3.724h9.092a5.387,5.387,0,0,1,5.368,5.365v21.568a5.389,5.389,0,0,1-5.368,5.368Zm-1.936-26.936v21.568a1.939,1.939,0,0,0,1.936,1.933h35.2a1.937,1.937,0,0,0,1.933-1.933v-21.568a1.939,1.939,0,0,0-1.933-1.933h-35.2A1.941,1.941,0,0,0-11972.567-3868.671Zm15.184-8.365-.676,3h10.009l-.629-3a.625.625,0,0,0-.628-.532h-7.448A.672.672,0,0,0-11957.384-3877.036Zm-6.239,19.149a10.586,10.586,0,0,1,10.592-10.589,10.586,10.586,0,0,1,10.589,10.589,10.586,10.586,0,0,1-10.589,10.589A10.586,10.586,0,0,1-11963.623-3857.887Zm3.436,0a7.141,7.141,0,0,0,7.156,7.156,7.141,7.141,0,0,0,7.156-7.156,7.141,7.141,0,0,0-7.156-7.156A7.141,7.141,0,0,0-11960.187-3857.887Zm2.563,0a4.621,4.621,0,0,1,4.593-4.593,1.733,1.733,0,0,1,1.788,1.692,1.732,1.732,0,0,1-1.74,1.74,1.177,1.177,0,0,0-1.16,1.16,1.732,1.732,0,0,1-1.74,1.74A1.732,1.732,0,0,1-11957.624-3857.887Z" transform="translate(11976.25 3881.25)" fill="#f60" stroke="#fefffe" stroke-width="0.5"/>
</svg>
