<svg xmlns="http://www.w3.org/2000/svg" xmlns:xlink="http://www.w3.org/1999/xlink" width="124" height="124" viewBox="0 0 124 124">
  <defs>
    <clipPath id="clip-path">
      <circle id="Ellipse_117" data-name="Ellipse 117" cx="61" cy="61" r="61" fill="#fff" stroke="#9e9e9e" stroke-miterlimit="10" stroke-width="9.798"/>
    </clipPath>
  </defs>
  <g id="face-height" transform="translate(1 1)">
    <g id="Group_1546" data-name="Group 1546" transform="translate(0)">
      <circle id="Ellipse_112" data-name="Ellipse 112" cx="61" cy="61" r="61" fill="#fff"/>
      <g id="Group_1545" data-name="Group 1545" clip-path="url(#clip-path)">
        <g id="Group_1544" data-name="Group 1544" transform="translate(7.668 17.861)">
          <g id="Group_1535" data-name="Group 1535" transform="translate(0 10.502)">
            <path id="Path_5242" data-name="Path 5242" d="M117.772,2006.584c-23.573,10.334-30.644,15.842-33.44,18.317-4.308,3.811-6.69,18.02-9.231,30.083H181.765c-2.54-12.063-4.923-26.272-9.23-30.083-2.794-2.474-9.607-7.841-33.181-18.177Z" transform="translate(-75.101 -1949.217)" fill="#ffdecc" fill-rule="evenodd"/>
            <path id="Path_5243" data-name="Path 5243" d="M117.771,2006.584c-23.572,10.334-30.644,15.842-33.439,18.317-4.308,3.811-6.69,18.02-9.231,30.083H181.765c-2.54-12.063-4.923-26.272-9.23-30.083-2.794-2.474-9.607-7.841-33.181-18.177Z" transform="translate(-75.101 -1949.217)" fill="#939ba9" fill-rule="evenodd"/>
            <path id="Path_5244" data-name="Path 5244" d="M418.247,1761.71v26.13c6.295,7.443,16.6,7.71,22.891,0v-26.13C441.138,1747.6,418.247,1747.6,418.247,1761.71Z" transform="translate(-376.359 -1724.944)" fill="#f8c09a" fill-rule="evenodd"/>
            <path id="Path_5245" data-name="Path 5245" d="M301.206,1702.422c2.015-.665,4.581,1.624,5.728,5.11s.445,6.851-1.572,7.515-4.581-1.623-5.728-5.112S299.189,1703.086,301.206,1702.422Z" transform="translate(-271.741 -1682.083)" fill="#f8c09a" fill-rule="evenodd"/>
            <path id="Path_5246" data-name="Path 5246" d="M661.538,1702.422c-2.017-.665-4.583,1.624-5.73,5.11s-.443,6.851,1.571,7.515,4.583-1.623,5.731-5.112S663.552,1703.086,661.538,1702.422Z" transform="translate(-584.437 -1682.083)" fill="#f8c09a" fill-rule="evenodd"/>
            <g id="Group_1533" data-name="Group 1533" transform="translate(29.485 2.498)">
              <path id="Path_5247" data-name="Path 5247" d="M418.247,1941.474v.826s5.847,6.94,11.424,7.191,11.466-6.719,11.466-6.719V1941.5" transform="translate(-405.845 -1894.553)" opacity="0.2"/>
              <path id="Path_5248" data-name="Path 5248" d="M362.848,1585.8c-.066-.983-.006-2.93,0-2.952.1-1.133.3-2.235.5-3.338-1.4-6.352-1.9-11.636-6.681-19.031-.08.919-4.521-.513-8.5-.513-2.556,0-5.452,5.74-7.762,4.8-6.041-2.466-8.836-9.537-15.237-7.193-.278.216-3.24,4.786-3.563,5.377-3.836,7.01-2.234,3.065-3.347,10.084.224,1.5-.806,6.223-.676,7.755,0,.022,1.645,4.032,1.579,5.014a.17.17,0,0,1-.078.149c-.143.069-.574.183-.632.078a3.419,3.419,0,0,1-.26-.417c-.03-.12-.053-.234-.072-.345,0,.016,0,.031,0,.048-.934-6.328-.986-12.288-1.267-17.694-1.146,12.94,3.061,26.848,4.254,28.766,2.536,4.075,13.728,13.058,19.417,13.058s16.881-8.982,19.418-13.058c.6-.969,1.975-5,3.038-10.417l-.043-.018A.174.174,0,0,1,362.848,1585.8Z" transform="translate(-316.647 -1557.098)" fill="#f8c09a"/>
              <g id="Group_1532" data-name="Group 1532">
                <g id="Group_1531" data-name="Group 1531">
                  <path id="Path_5249" data-name="Path 5249" d="M324.76,1755.615c.019.112.042.226.072.345a3.4,3.4,0,0,0,.26.417c.058.105.488-.009.632-.078a.17.17,0,0,0,.078-.149c.066-.98-1.566-4.968-1.578-5.013.138,1.486.312,2.995.538,4.526C324.76,1755.647,324.761,1755.632,324.76,1755.615Z" transform="translate(-323.298 -1727.451)" fill="#f2b792"/>
                  <path id="Path_5250" data-name="Path 5250" d="M324.216,1751.068v-.01s0,.006,0,.009Z" transform="translate(-323.291 -1727.381)" fill="#f2b792"/>
                  <path id="Path_5251" data-name="Path 5251" d="M340.394,1564.76c-6.041-2.466-8.836-9.537-15.237-7.193-.278.216-3.24,4.786-3.563,5.377-3.836,7.01-2.234,3.065-3.347,10.084.224,1.495-.8,6.206-.676,7.746v.01c.012.045,1.645,4.033,1.578,5.013a.17.17,0,0,1-.078.149c-.143.069-.574.183-.632.078a3.419,3.419,0,0,1-.26-.417c-.03-.12-.053-.234-.072-.345,0,.016,0,.031,0,.048-.226-1.531-.4-3.04-.538-4.526h0v-.009c-.433-4.65-.515-9.063-.728-13.158-1.146,12.94,3.061,26.848,4.254,28.766,2.533,4.071,13.7,13.038,19.4,13.057V1564.8C340.461,1564.785,340.427,1564.773,340.394,1564.76Z" transform="translate(-316.647 -1557.098)" fill="#f2b792"/>
                </g>
              </g>
            </g>
            <g id="Group_1534" data-name="Group 1534" transform="translate(50.973)">
              <path id="Path_5252" data-name="Path 5252" d="M493.268,1536.809c-.2-.062-.4-.119-.593-.177.294.072.588.148.883.231C493.461,1536.843,493.365,1536.826,493.268,1536.809Z" transform="translate(-492.675 -1536.632)" fill="#bf9741"/>
            </g>
          </g>
          <g id="Group_1536" data-name="Group 1536" transform="translate(40.008 31.954)">
            <circle id="Ellipse_113" data-name="Ellipse 113" cx="2.366" cy="2.366" r="2.366" opacity="0.4"/>
            <circle id="Ellipse_114" data-name="Ellipse 114" cx="2.366" cy="2.366" r="2.366" transform="translate(22)" opacity="0.4"/>
          </g>
          <g id="Group_1538" data-name="Group 1538" transform="translate(46.836 50.235)">
            <g id="Group_1537" data-name="Group 1537">
              <path id="Path_5253" data-name="Path 5253" d="M465.557,1866.6c3.741,0,6.773-2,6.773-4.475H458.784C458.784,1864.6,461.817,1866.6,465.557,1866.6Z" transform="translate(-458.784 -1862.125)" fill="#ffe8d9"/>
            </g>
          </g>
          <path id="Path_5254" data-name="Path 5254" d="M495.646,1731.747h0a1.634,1.634,0,0,1,1.559,1.515l1,8.592a.785.785,0,0,1-.727.912h-3.617a.785.785,0,0,1-.728-.908l.957-8.587A1.635,1.635,0,0,1,495.646,1731.747Z" transform="translate(-442.095 -1697.427)" fill="#dba283" opacity="0.3"/>
          <path id="Path_5255" data-name="Path 5255" d="M336.572,1450.6c-17.19,0-22.938,11.329-24.017,23.5.285,5.485.338,11.532,1.285,17.953,0-.017,0-.032,0-.049.02.114.042.229.073.351a3.472,3.472,0,0,0,.264.423c.059.107.5-.009.641-.079a.172.172,0,0,0,.079-.151c.068-1,.006-2.973,0-3-.132-1.554,2.771-19.387,6.664-22.436s8.758,1.584,14.887,4.086c2.344.957,5.874,1.021,8.467,1.021,4.04,0,7.954-4.435,8.035-5.367,4.856,7.5,6.373,21.547,6.276,22.7,0,.022-.063,2,0,3a.176.176,0,0,0,.079.151l.044.018C362.391,1477.245,362.935,1450.6,336.572,1450.6Z" transform="translate(-283.569 -1450.601)" fill="#a57c6a"/>
          <g id="Group_1543" data-name="Group 1543" transform="translate(1.505 37.799)">
            <g id="Group_1541" data-name="Group 1541">
              <g id="Group_1540" data-name="Group 1540">
                <g id="Group_1539" data-name="Group 1539" transform="translate(29.898)">
                  <path id="Path_5256" data-name="Path 5256" d="M332.36,1801.19a3.539,3.539,0,0,0,3.566,3.508h15.645a3.55,3.55,0,0,0,3.58-3.508v-37.424a3.558,3.558,0,0,0-3.58-3.517H335.926a3.546,3.546,0,0,0-3.566,3.517Z" transform="translate(-332.36 -1760.249)" fill="#605c5d"/>
                </g>
                <path id="Path_5257" data-name="Path 5257" d="M106.749,1874.461c1.577-3.422,3.407-6.236,3.481-6.464.132-.406-.147-5.7-.078-6.735s-.795-5.938-.855-6.507a30.217,30.217,0,0,1-.233-4.421,24.685,24.685,0,0,1,1.389-4.48,21.206,21.206,0,0,0,1.255-4.014,18.912,18.912,0,0,1,.309-2.141,5.735,5.735,0,0,1,.561-1.634c.345-.444,1.468-2.016,1.785-2.4s.684-1.4.891-1.553a8.143,8.143,0,0,0,.538-1.906c.129-.463.394-1.681.869-1.988a.822.822,0,0,1,1.108.256c.112.1.967.929,1.107,3.244.005.088.01.181.014.278a15.25,15.25,0,0,1,.288,2c.178,3.385-.474,3.952-.612,4.245s-.4.389-.625.8l-.1.176c-.128.276-.229.528-.246.556a.1.1,0,0,1-.017.02.313.313,0,0,0,.007.166c.072.2-.115.749-.091,1.777a6.177,6.177,0,0,1-.53,2.769c-.312.5-.178,1.295.019.943a14.3,14.3,0,0,1,1.9-1.773c.149-.093,19.919-14.074,19.919-14.074a10.185,10.185,0,0,1,1.471-.667,2.7,2.7,0,0,1,2.681.707c.719.825.243,1.647-.376,2.733s-4.215,3.406-4.215,3.406l.01.2a2.782,2.782,0,0,1,.781-.236,4.2,4.2,0,0,1,1.907.142c.8.181,1.19,1,1.6,1.757s-.273,1.814-.785,2.609a2.744,2.744,0,0,1-1.914,1,6.417,6.417,0,0,1-1.051,1.048,4.9,4.9,0,0,1,1.723.036,3.082,3.082,0,0,1,1.475,1.162,3.706,3.706,0,0,1,.317,2.53c-.062.575-1.061.849-1.485.983a2.328,2.328,0,0,0-.775.464s.146-.15,1.211.231,1.184.89,1.532,1.674a2.635,2.635,0,0,1-.566,2.685c-.7.775-3.284,4.152-3.307,4.9a9.146,9.146,0,0,1-1.691,4.259c-1.151,1.359-3.377,4.385-5.2,6.3-1.482,1.55-3.029,2.112-4.61,3.072-1.5.912-1.7,2.169-2.18,3.431-.365.958-19.8,40.857-19.8,40.857L87.431,1905.7S105.678,1876.786,106.749,1874.461Z" transform="translate(-87.431 -1821.566)" fill="#f2b792"/>
              </g>
            </g>
            <g id="Group_1542" data-name="Group 1542" transform="translate(31.74 2.735)">
              <rect id="Rectangle_8003" data-name="Rectangle 8003" width="2.319" height="5.315" rx="1.16" fill="#7a797a"/>
              <circle id="Ellipse_115" data-name="Ellipse 115" cx="0.858" cy="0.858" r="0.858" transform="translate(0.302 0.396)" fill="#565556" opacity="0.5"/>
              <circle id="Ellipse_116" data-name="Ellipse 116" cx="0.858" cy="0.858" r="0.858" transform="translate(0.302 3.304)" fill="#565556" opacity="0.5"/>
            </g>
          </g>
        </g>
      </g>
      <circle id="Ellipse_118" data-name="Ellipse 118" cx="61" cy="61" r="61" fill="none" stroke="#ff6601" stroke-miterlimit="10" stroke-width="2"/>
    </g>
  </g>
</svg>
