<svg xmlns="http://www.w3.org/2000/svg" xmlns:xlink="http://www.w3.org/1999/xlink" width="128" height="127.812" viewBox="0 0 128 127.812">
  <defs>
    <clipPath id="clip-path">
      <rect id="Rectangle_8011" data-name="Rectangle 8011" width="122" height="121.811" rx="60.906" transform="translate(0 0)" fill="rgba(43,12,3,0.49)"/>
    </clipPath>
    <filter id="Path_5315" x="-19.033" y="23.209" width="132.506" height="103.936" filterUnits="userSpaceOnUse">
      <feOffset dy="3" input="SourceAlpha"/>
      <feGaussianBlur stdDeviation="3" result="blur"/>
      <feFlood flood-opacity="0.161"/>
      <feComposite operator="in" in2="blur"/>
      <feComposite in="SourceGraphic"/>
    </filter>
  </defs>
  <g id="focused-no-glare" transform="translate(-5717 -7751)">
    <g id="Rectangle_8008" data-name="Rectangle 8008" transform="translate(5720 7754)" fill="rgba(43,12,3,0.49)" stroke="#f60" stroke-width="3">
      <rect width="122" height="121.811" rx="60.906" stroke="none"/>
      <rect x="-1.5" y="-1.5" width="125" height="124.811" rx="62.406" fill="none"/>
    </g>
    <g id="Mask_Group_12" data-name="Mask Group 12" transform="translate(5720 7754)" clip-path="url(#clip-path)">
      <g id="Group_1598" data-name="Group 1598" transform="translate(1.488 26.245) rotate(13)">
        <g transform="matrix(0.97, -0.22, 0.22, 0.97, -10.95, -27.49)" filter="url(#Path_5315)">
          <path id="Path_5315-2" data-name="Path 5315" d="M102.608,9.269a9.313,9.313,0,0,0-9.314-9.3H87.066L40.209-.014H37.12L9.268,0A9.33,9.33,0,0,0,0,9.3L-.019,55.158a9.31,9.31,0,0,0,9.264,9.313h7.173l34.5-.012h3.089l39.264-.013a9.329,9.329,0,0,0,9.32-9.307Z" transform="translate(4.49 29.24) rotate(13)" fill="#fff"/>
        </g>
        <path id="Union_65" data-name="Union 65" d="M54.008,64.456H50.919l-34.5.012H9.245A9.31,9.31,0,0,1-.019,55.158L0,9.3A9.33,9.33,0,0,1,9.267,0L37.12-.013h3.089L87.066-.03h6.228a9.313,9.313,0,0,1,9.314,9.3l-.016,45.866a9.329,9.329,0,0,1-9.32,9.307ZM40.346,15.072A6.732,6.732,0,0,1,42.5,18.588c1.642.838,4.577,3.28,3.87,9.962a14.523,14.523,0,0,1-6.066,13.921,6.474,6.474,0,0,0,2.471,1.461A16.378,16.378,0,0,1,56.224,54.349a51.99,51.99,0,0,1,1.7,7.021l35.353-.012a6.238,6.238,0,0,0,6.211-6.221L99.518,9.27a6.231,6.231,0,0,0-6.226-6.217L9.266,3.082A6.239,6.239,0,0,0,3.086,9.3L3.071,55.157a6.228,6.228,0,0,0,6.176,6.229h.16a38.088,38.088,0,0,1,1.745-7.256,16.455,16.455,0,0,1,13.41-10.191,6.6,6.6,0,0,0,2.472-1.469,14.473,14.473,0,0,1-6.119-13.362,18.733,18.733,0,0,1-2.676-15.83,1.546,1.546,0,0,1,2.472-.8,21.8,21.8,0,0,0,12.882.946,8.726,8.726,0,0,1,6.752,1.651ZM50.3,55.283l.486,6.089h3.991a49.007,49.007,0,0,0-1.512-6.12,13.394,13.394,0,0,0-10.674-8.2L35.6,50.37a4.444,4.444,0,0,1-3.855,0l-6.986-3.317a13.463,13.463,0,0,0-10.667,8.08,35.752,35.752,0,0,0-1.552,6.251h4.01l.5-6.089a1.581,1.581,0,0,1,1.662-1.414l.012.006a1.525,1.525,0,0,1,1.4,1.653l-.472,5.843,28.037-.01-.462-5.843v-.006a1.546,1.546,0,0,1,1.416-1.654c.035,0,.07,0,.1,0A1.562,1.562,0,0,1,50.3,55.283Zm-21.856-9.9,4.658,2.2a1.334,1.334,0,0,0,1.186,0l4.665-2.2h-.024a7.273,7.273,0,0,1-1.427-1.462,11.162,11.162,0,0,1-1.087.382,8.975,8.975,0,0,1-5.437,0c-.37-.11-.735-.24-1.087-.382A7.065,7.065,0,0,1,28.448,45.381ZM24.018,30.008a11.015,11.015,0,0,0,7.9,11.387,5.873,5.873,0,0,0,3.571,0,11.056,11.056,0,0,0,7.907-11.5,11.7,11.7,0,0,1-4.145-2.509,3.5,3.5,0,0,0-3.664-.61h-.049A43.93,43.93,0,0,1,24.018,30.008Zm-.845-3.035A40.2,40.2,0,0,0,34.35,23.927a6.615,6.615,0,0,1,6.931,1.108,11.245,11.245,0,0,0,2.119,1.5c-.024-4.591-2.507-5.317-2.624-5.361a1.583,1.583,0,0,1-1.18-1.4,3.819,3.819,0,0,0-1.272-2.394A5.654,5.654,0,0,0,34,16.474a30.6,30.6,0,0,1-13.129-.446A14.294,14.294,0,0,0,23.172,26.972ZM78.431,47.357a1.549,1.549,0,0,1,0-3.1l14.254,0a1.549,1.549,0,0,1,0,3.1Zm-17.341-5.7a1.549,1.549,0,1,1,0-3.1l31.6-.011a1.549,1.549,0,0,1,0,3.1Zm0-6.8a1.549,1.549,0,1,1,0-3.1l31.6-.011a1.549,1.549,0,0,1,0,3.1Zm0-6.806a1.549,1.549,0,1,1,0-3.1l31.6-.011a1.549,1.549,0,0,1,0,3.1Zm0-6.564a1.549,1.549,0,1,1,0-3.1l14.248,0a1.549,1.549,0,1,1,0,3.1Z" transform="translate(0)" fill="#f60" stroke="rgba(0,0,0,0)" stroke-miterlimit="10" stroke-width="1"/>
      </g>
      <g id="Group_1599" data-name="Group 1599" transform="translate(12.205 27.72)">
        <rect id="Rectangle_8009" data-name="Rectangle 8009" width="42.005" height="41.941" rx="20.971" transform="matrix(0.996, -0.087, 0.087, 0.996, 0, 3.655)" fill="#fff" opacity="0.653"/>
        <rect id="Rectangle_8010" data-name="Rectangle 8010" width="26.003" height="24.965" rx="12.483" transform="matrix(0.996, -0.087, 0.087, 0.996, 8.754, 11.911)" fill="#fff" opacity="0.653"/>
      </g>
    </g>
    <path id="Path_5322" data-name="Path 5322" d="M60.906,0a60.906,60.906,0,0,1,60.906,60.906v.189A60.906,60.906,0,0,1,0,61.094v-.189A60.906,60.906,0,0,1,60.906,0Z" transform="translate(5720 7754)" fill="#fff"/>
  </g>
</svg>
