<svg xmlns="http://www.w3.org/2000/svg" xmlns:xlink="http://www.w3.org/1999/xlink" width="142.332" height="124" viewBox="0 0 142.332 124">
  <defs>
    <clipPath id="clip-path">
      <circle id="Ellipse_127" data-name="Ellipse 127" cx="61" cy="61" r="61" fill="#fff" stroke="#9e9e9e" stroke-miterlimit="10" stroke-width="9.798"/>
    </clipPath>
  </defs>
  <g id="illuminated" transform="translate(-5735.475 -7556.498)">
    <g id="Group_1571" data-name="Group 1571" transform="translate(5754.806 7557.498)">
      <g id="Group_1570" data-name="Group 1570" transform="translate(0)">
        <circle id="Ellipse_124" data-name="Ellipse 124" cx="61" cy="61" r="61" fill="#fff"/>
        <g id="Group_1569" data-name="Group 1569" clip-path="url(#clip-path)">
          <g id="Group_1568" data-name="Group 1568" transform="translate(7.668 17.861)">
            <g id="Group_1564" data-name="Group 1564" transform="translate(0 10.502)">
              <path id="Path_5272" data-name="Path 5272" d="M-1259.365,2006.584c-23.573,10.334-30.644,15.842-33.44,18.317-4.308,3.811-6.69,18.02-9.231,30.083h106.664c-2.54-12.063-4.923-26.272-9.23-30.083-2.794-2.474-9.607-7.841-33.181-18.177Z" transform="translate(1302.036 -1949.217)" fill="#ffdecc" fill-rule="evenodd"/>
              <path id="Path_5273" data-name="Path 5273" d="M-1259.366,2006.584c-23.573,10.334-30.644,15.842-33.439,18.317-4.308,3.811-6.69,18.02-9.231,30.083h106.664c-2.54-12.063-4.923-26.272-9.23-30.083-2.794-2.474-9.607-7.841-33.181-18.177Z" transform="translate(1302.036 -1949.217)" fill="#939ba9" fill-rule="evenodd"/>
              <path id="Path_5274" data-name="Path 5274" d="M-958.891,1761.709v26.131c6.295,7.443,16.6,7.71,22.891,0v-26.131C-936,1747.6-958.891,1747.6-958.891,1761.709Z" transform="translate(1000.779 -1724.944)" fill="#f8c09a" fill-rule="evenodd"/>
              <path id="Path_5275" data-name="Path 5275" d="M-1075.932,1702.422c2.015-.665,4.581,1.624,5.728,5.11s.445,6.851-1.572,7.515-4.581-1.623-5.728-5.112S-1077.948,1703.086-1075.932,1702.422Z" transform="translate(1105.397 -1682.083)" fill="#f8c09a" fill-rule="evenodd"/>
              <path id="Path_5276" data-name="Path 5276" d="M-715.6,1702.422c-2.017-.665-4.583,1.624-5.731,5.11s-.443,6.851,1.571,7.515,4.583-1.623,5.731-5.112S-713.586,1703.086-715.6,1702.422Z" transform="translate(792.701 -1682.083)" fill="#f8c09a" fill-rule="evenodd"/>
              <g id="Group_1562" data-name="Group 1562" transform="translate(29.485 2.498)">
                <path id="Path_5277" data-name="Path 5277" d="M-958.891,1941.474v.826s5.848,6.94,11.425,7.191,11.466-6.719,11.466-6.719V1941.5" transform="translate(971.293 -1894.553)" opacity="0.2"/>
                <path id="Path_5278" data-name="Path 5278" d="M-1014.29,1585.8c-.065-.983-.006-2.93,0-2.952.1-1.133.3-2.235.5-3.338-1.405-6.352-1.9-11.636-6.681-19.031-.08.919-4.521-.513-8.5-.513-2.556,0-5.452,5.74-7.762,4.8-6.041-2.466-8.837-9.537-15.237-7.193-.279.216-3.24,4.786-3.563,5.377-3.836,7.01-2.234,3.065-3.347,10.084.224,1.5-.806,6.223-.676,7.755,0,.022,1.645,4.032,1.579,5.014a.17.17,0,0,1-.078.149c-.143.069-.574.183-.632.078a3.408,3.408,0,0,1-.26-.417c-.03-.12-.052-.234-.072-.345,0,.016,0,.031,0,.048-.934-6.328-.986-12.288-1.267-17.694-1.146,12.94,3.061,26.848,4.254,28.766,2.536,4.075,13.728,13.058,19.417,13.058s16.881-8.982,19.418-13.058c.6-.969,1.975-5,3.038-10.417l-.043-.018A.174.174,0,0,1-1014.29,1585.8Z" transform="translate(1060.491 -1557.098)" fill="#f8c09a"/>
                <g id="Group_1561" data-name="Group 1561">
                  <g id="Group_1560" data-name="Group 1560">
                    <path id="Path_5279" data-name="Path 5279" d="M-1052.377,1755.615c.019.112.042.226.072.346a3.408,3.408,0,0,0,.26.417c.058.105.489-.009.632-.078a.17.17,0,0,0,.078-.149c.066-.98-1.566-4.968-1.578-5.013.138,1.485.312,2.995.538,4.526C-1052.377,1755.647-1052.376,1755.632-1052.377,1755.615Z" transform="translate(1053.839 -1727.451)" fill="#f2b792"/>
                    <path id="Path_5280" data-name="Path 5280" d="M-1052.921,1751.068v-.01s0,.006,0,.009Z" transform="translate(1053.846 -1727.381)" fill="#f2b792"/>
                    <path id="Path_5281" data-name="Path 5281" d="M-1036.744,1564.76c-6.041-2.466-8.837-9.537-15.237-7.193-.279.216-3.24,4.786-3.563,5.377-3.836,7.01-2.234,3.065-3.347,10.084.224,1.495-.8,6.206-.676,7.746v.01c.012.045,1.645,4.033,1.578,5.013a.17.17,0,0,1-.078.149c-.143.069-.574.183-.632.078a3.408,3.408,0,0,1-.26-.417c-.03-.12-.052-.234-.072-.345,0,.016,0,.031,0,.048-.226-1.531-.4-3.04-.538-4.526h0s0-.006,0-.009c-.433-4.65-.515-9.063-.728-13.158-1.146,12.94,3.061,26.848,4.254,28.766,2.533,4.071,13.7,13.038,19.4,13.057V1564.8C-1036.677,1564.785-1036.71,1564.773-1036.744,1564.76Z" transform="translate(1060.491 -1557.098)" fill="#f2b792"/>
                  </g>
                </g>
              </g>
              <g id="Group_1563" data-name="Group 1563" transform="translate(50.973)">
                <path id="Path_5282" data-name="Path 5282" d="M-883.87,1536.809c-.2-.062-.4-.119-.593-.177.294.072.588.148.883.231C-883.677,1536.843-883.773,1536.826-883.87,1536.809Z" transform="translate(884.463 -1536.632)" fill="#bf9741"/>
              </g>
            </g>
            <g id="Group_1565" data-name="Group 1565" transform="translate(40.008 31.954)">
              <circle id="Ellipse_125" data-name="Ellipse 125" cx="2.366" cy="2.366" r="2.366" opacity="0.4"/>
              <circle id="Ellipse_126" data-name="Ellipse 126" cx="2.366" cy="2.366" r="2.366" transform="translate(22)" opacity="0.4"/>
            </g>
            <g id="Group_1567" data-name="Group 1567" transform="translate(46.836 50.235)">
              <g id="Group_1566" data-name="Group 1566">
                <path id="Path_5283" data-name="Path 5283" d="M-911.581,1866.6c3.741,0,6.773-2,6.773-4.475h-13.547C-918.354,1864.6-915.321,1866.6-911.581,1866.6Z" transform="translate(918.354 -1862.125)" fill="#ffe8d9"/>
              </g>
            </g>
            <path id="Path_5284" data-name="Path 5284" d="M-881.492,1731.747h0a1.634,1.634,0,0,1,1.559,1.515l1,8.592a.785.785,0,0,1-.727.912h-3.617a.785.785,0,0,1-.728-.908l.957-8.587A1.635,1.635,0,0,1-881.492,1731.747Z" transform="translate(935.042 -1697.427)" fill="#dba283" opacity="0.3"/>
            <path id="Path_5285" data-name="Path 5285" d="M-1040.566,1450.6c-17.19,0-22.938,11.329-24.017,23.5.285,5.485.338,11.532,1.285,17.953,0-.017,0-.032,0-.049.02.114.042.229.073.351a3.489,3.489,0,0,0,.264.424c.059.107.5-.009.641-.08a.172.172,0,0,0,.079-.151c.068-1,.007-2.973,0-3-.132-1.554,2.771-19.387,6.664-22.436s8.757,1.584,14.887,4.086c2.344.957,5.874,1.021,8.468,1.021,4.039,0,7.954-4.435,8.035-5.367,4.856,7.5,6.373,21.547,6.276,22.7,0,.022-.063,2,0,3a.176.176,0,0,0,.079.151l.044.019C-1014.747,1477.245-1014.2,1450.6-1040.566,1450.6Z" transform="translate(1093.569 -1450.601)" fill="#a57c6a"/>
          </g>
        </g>
        <circle id="Ellipse_128" data-name="Ellipse 128" cx="61" cy="61" r="61" fill="none" stroke="#ff6601" stroke-miterlimit="10" stroke-width="2"/>
      </g>
    </g>
    <g id="Group_1573" data-name="Group 1573" transform="translate(5736.475 7592.017)">
      <circle id="Ellipse_129" data-name="Ellipse 129" cx="20.858" cy="20.858" r="20.858" transform="translate(0)" fill="#fff" stroke="#ff6601" stroke-miterlimit="10" stroke-width="2"/>
      <g id="Group_1572" data-name="Group 1572" transform="translate(5.944 5.944)">
        <path id="Path_5286" data-name="Path 5286" d="M-1350.7,1635.762a1.119,1.119,0,0,1,.707,1.2c-.027,1.153,0,2.306-.01,3.459a.925.925,0,0,1-.828.931.928.928,0,0,1-1-.7,1.3,1.3,0,0,1-.03-.316c0-1.124.017-2.249-.01-3.372a1.117,1.117,0,0,1,.708-1.2Z" transform="translate(1365.844 -1635.762)" fill="#f8bf39" stroke="#f8bf39" stroke-miterlimit="10" stroke-width="0.7"/>
        <path id="Path_5287" data-name="Path 5287" d="M-1466.334,1750.933a1.117,1.117,0,0,1,1.2-.708c1.124.027,2.248.008,3.372.008a.942.942,0,0,1,1.022.918.938.938,0,0,1-1.022.947c-1.124,0-2.249-.019-3.372.009a1.119,1.119,0,0,1-1.2-.707Z" transform="translate(1466.334 -1736.252)" fill="#f8bf39" stroke="#f8bf39" stroke-miterlimit="10" stroke-width="0.7"/>
        <path id="Path_5288" data-name="Path 5288" d="M-1262.2,1751.4a1.122,1.122,0,0,1-1.2.707c-1.124-.027-2.248-.007-3.372-.009a.939.939,0,0,1-1.021-.947.939.939,0,0,1,1.022-.917c1.124,0,2.249.02,3.372-.009a1.119,1.119,0,0,1,1.2.708Z" transform="translate(1292.031 -1736.252)" fill="#f8bf39" stroke="#f8bf39" stroke-miterlimit="10" stroke-width="0.7"/>
        <path id="Path_5289" data-name="Path 5289" d="M-1351.163,1839.893a1.119,1.119,0,0,1-.708-1.2c.029-1.123.007-2.248.009-3.372a.939.939,0,0,1,.917-1.022.939.939,0,0,1,.947,1.021c0,1.124-.019,2.249.009,3.372a1.122,1.122,0,0,1-.707,1.2Z" transform="translate(1365.844 -1810.065)" fill="#f8bf39" stroke="#f8bf39" stroke-miterlimit="10" stroke-width="0.7"/>
        <path id="Path_5290" data-name="Path 5290" d="M-1397.766,1696.85a7.47,7.47,0,0,1,7.434,7.495,7.472,7.472,0,0,1-7.511,7.419,7.47,7.47,0,0,1-7.4-7.555A7.47,7.47,0,0,1-1397.766,1696.85Zm-.008,1.865a5.6,5.6,0,0,0-5.607,5.518,5.6,5.6,0,0,0,5.546,5.667,5.606,5.606,0,0,0,5.638-5.548A5.6,5.6,0,0,0-1397.774,1698.715Z" transform="translate(1412.703 -1689.393)" fill="#f8bf39" stroke="#f8bf39" stroke-miterlimit="10" stroke-width="0.7"/>
        <path id="Path_5291" data-name="Path 5291" d="M-1431.784,1669.179a2.115,2.115,0,0,1,.549.308c.884.855,1.751,1.729,2.616,2.605a.92.92,0,0,1,.015,1.328.919.919,0,0,1-1.328-.012q-1.324-1.307-2.629-2.633a.871.871,0,0,1-.188-1.019A1,1,0,0,1-1431.784,1669.179Z" transform="translate(1436.926 -1665.1)" fill="#f8bf39" stroke="#f8bf39" stroke-miterlimit="10" stroke-width="0.7"/>
        <path id="Path_5292" data-name="Path 5292" d="M-1287.853,1670.23a2.806,2.806,0,0,1-.355.638c-.855.885-1.73,1.751-2.6,2.616a.921.921,0,0,1-1.328.015.921.921,0,0,1,.013-1.328q1.3-1.312,2.61-2.611a.9.9,0,0,1,1.041-.209A1.122,1.122,0,0,1-1287.853,1670.23Z" transform="translate(1313.648 -1665.177)" fill="#f8bf39" stroke="#f8bf39" stroke-miterlimit="10" stroke-width="0.7"/>
        <path id="Path_5293" data-name="Path 5293" d="M-1429.4,1809.64a.968.968,0,0,1,.946.532.844.844,0,0,1-.129,1q-1.359,1.394-2.755,2.753a.89.89,0,0,1-1.239-.048.9.9,0,0,1-.055-1.261q1.357-1.4,2.757-2.751A1.432,1.432,0,0,1-1429.4,1809.64Z" transform="translate(1436.949 -1788.415)" fill="#f8bf39" stroke="#f8bf39" stroke-miterlimit="10" stroke-width="0.7"/>
        <path id="Path_5294" data-name="Path 5294" d="M-1287.9,1813.131a.993.993,0,0,1-.582.957.89.89,0,0,1-1.04-.213q-1.083-1.076-2.159-2.158c-.158-.158-.32-.311-.471-.474a.924.924,0,0,1,.017-1.308.917.917,0,0,1,1.307,0c.89.878,1.777,1.759,2.646,2.658A1.876,1.876,0,0,1-1287.9,1813.131Z" transform="translate(1313.643 -1788.434)" fill="#f8bf39" stroke="#f8bf39" stroke-miterlimit="10" stroke-width="0.7"/>
      </g>
    </g>
  </g>
</svg>
