<svg xmlns="http://www.w3.org/2000/svg" xmlns:xlink="http://www.w3.org/1999/xlink" width="124" height="124" viewBox="0 0 124 124">
  <defs>
    <clipPath id="clip-path">
      <circle id="Ellipse_122" data-name="Ellipse 122" cx="61" cy="61" r="61" fill="#fff" stroke="#9e9e9e" stroke-miterlimit="10" stroke-width="9.798"/>
    </clipPath>
  </defs>
  <g id="light-background" transform="translate(1 1)">
    <g id="Group_1558" data-name="Group 1558" transform="translate(0 0)">
      <circle id="Ellipse_119" data-name="Ellipse 119" cx="61" cy="61" r="61" fill="#fff"/>
      <g id="Group_1557" data-name="Group 1557" clip-path="url(#clip-path)">
        <g id="Group_1556" data-name="Group 1556" transform="translate(7.668 17.861)">
          <g id="Group_1552" data-name="Group 1552" transform="translate(0 10.502)">
            <path id="Path_5258" data-name="Path 5258" d="M117.772,714.584C94.2,724.918,87.127,730.426,84.332,732.9c-4.308,3.811-6.69,18.02-9.231,30.083H181.765c-2.54-12.063-4.923-26.272-9.23-30.083-2.794-2.474-9.607-7.841-33.181-18.177Z" transform="translate(-75.101 -657.217)" fill="#ffdecc" fill-rule="evenodd"/>
            <path id="Path_5259" data-name="Path 5259" d="M117.771,714.584C94.2,724.918,87.127,730.426,84.332,732.9c-4.308,3.811-6.69,18.02-9.231,30.083H181.765c-2.54-12.063-4.923-26.272-9.23-30.083-2.794-2.474-9.607-7.841-33.181-18.177Z" transform="translate(-75.101 -657.217)" fill="#939ba9" fill-rule="evenodd"/>
            <path id="Path_5260" data-name="Path 5260" d="M418.247,469.71V495.84c6.295,7.443,16.6,7.71,22.891,0V469.71C441.138,455.6,418.247,455.6,418.247,469.71Z" transform="translate(-376.359 -432.944)" fill="#f8c09a" fill-rule="evenodd"/>
            <path id="Path_5261" data-name="Path 5261" d="M301.206,410.422c2.015-.665,4.581,1.624,5.728,5.11s.445,6.851-1.572,7.515-4.581-1.623-5.728-5.111S299.189,411.086,301.206,410.422Z" transform="translate(-271.741 -390.083)" fill="#f8c09a" fill-rule="evenodd"/>
            <path id="Path_5262" data-name="Path 5262" d="M661.538,410.422c-2.017-.665-4.583,1.624-5.73,5.11s-.443,6.851,1.571,7.515,4.583-1.623,5.731-5.111S663.552,411.086,661.538,410.422Z" transform="translate(-584.437 -390.083)" fill="#f8c09a" fill-rule="evenodd"/>
            <g id="Group_1550" data-name="Group 1550" transform="translate(29.485 2.498)">
              <path id="Path_5263" data-name="Path 5263" d="M418.247,649.474v.826s5.847,6.94,11.424,7.191,11.466-6.719,11.466-6.719V649.5" transform="translate(-405.845 -602.553)" opacity="0.2"/>
              <path id="Path_5264" data-name="Path 5264" d="M362.848,293.8c-.066-.983-.006-2.93,0-2.952.1-1.133.3-2.235.5-3.338-1.4-6.352-1.9-11.636-6.681-19.031-.08.919-4.521-.513-8.5-.513-2.556,0-5.452,5.74-7.762,4.8-6.041-2.466-8.836-9.537-15.237-7.193-.278.216-3.24,4.786-3.563,5.377-3.836,7.01-2.234,3.065-3.347,10.084.224,1.5-.806,6.223-.676,7.755,0,.022,1.645,4.032,1.579,5.014a.17.17,0,0,1-.078.149c-.143.069-.574.183-.632.078a3.419,3.419,0,0,1-.26-.417c-.03-.12-.053-.234-.072-.346,0,.017,0,.032,0,.048-.934-6.328-.986-12.288-1.267-17.694-1.146,12.94,3.061,26.848,4.254,28.766,2.536,4.075,13.728,13.058,19.417,13.058s16.881-8.982,19.418-13.058c.6-.969,1.975-5,3.038-10.418l-.043-.018A.174.174,0,0,1,362.848,293.8Z" transform="translate(-316.647 -265.098)" fill="#f8c09a"/>
              <g id="Group_1549" data-name="Group 1549">
                <g id="Group_1548" data-name="Group 1548">
                  <path id="Path_5265" data-name="Path 5265" d="M324.76,463.615c.019.112.042.226.072.346a3.419,3.419,0,0,0,.26.417c.058.105.488-.009.632-.078a.17.17,0,0,0,.078-.149c.066-.98-1.566-4.968-1.578-5.013.138,1.485.312,2.994.538,4.526C324.76,463.647,324.761,463.632,324.76,463.615Z" transform="translate(-323.298 -435.452)" fill="#f2b792"/>
                  <path id="Path_5266" data-name="Path 5266" d="M324.216,459.068v0Z" transform="translate(-323.291 -435.381)" fill="#f2b792"/>
                  <path id="Path_5267" data-name="Path 5267" d="M340.394,272.76c-6.041-2.466-8.836-9.537-15.237-7.193-.278.216-3.24,4.786-3.563,5.377-3.836,7.01-2.234,3.065-3.347,10.084.224,1.495-.8,6.206-.676,7.746v.01c.012.045,1.645,4.033,1.578,5.013a.17.17,0,0,1-.078.149c-.143.069-.574.183-.632.078a3.419,3.419,0,0,1-.26-.417c-.03-.12-.053-.234-.072-.346,0,.017,0,.032,0,.048-.226-1.531-.4-3.04-.538-4.526h0v-.009c-.433-4.65-.515-9.063-.728-13.158-1.146,12.94,3.061,26.848,4.254,28.766,2.533,4.071,13.7,13.038,19.4,13.057V272.8C340.461,272.785,340.427,272.773,340.394,272.76Z" transform="translate(-316.647 -265.098)" fill="#f2b792"/>
                </g>
              </g>
            </g>
            <g id="Group_1551" data-name="Group 1551" transform="translate(50.973)">
              <path id="Path_5268" data-name="Path 5268" d="M493.268,244.809c-.2-.062-.4-.119-.593-.177.294.072.588.148.883.231C493.461,244.843,493.365,244.826,493.268,244.809Z" transform="translate(-492.675 -244.632)" fill="#bf9741"/>
            </g>
          </g>
          <g id="Group_1553" data-name="Group 1553" transform="translate(40.008 31.954)">
            <circle id="Ellipse_120" data-name="Ellipse 120" cx="2.366" cy="2.366" r="2.366" opacity="0.4"/>
            <circle id="Ellipse_121" data-name="Ellipse 121" cx="2.366" cy="2.366" r="2.366" transform="translate(22)" opacity="0.4"/>
          </g>
          <g id="Group_1555" data-name="Group 1555" transform="translate(46.836 50.235)">
            <g id="Group_1554" data-name="Group 1554">
              <path id="Path_5269" data-name="Path 5269" d="M465.557,574.6c3.741,0,6.773-2,6.773-4.475H458.784C458.784,572.6,461.817,574.6,465.557,574.6Z" transform="translate(-458.784 -570.125)" fill="#ffe8d9"/>
            </g>
          </g>
          <path id="Path_5270" data-name="Path 5270" d="M495.646,439.747h0a1.634,1.634,0,0,1,1.559,1.515l1,8.592a.785.785,0,0,1-.727.912h-3.617a.785.785,0,0,1-.728-.908l.957-8.587A1.635,1.635,0,0,1,495.646,439.747Z" transform="translate(-442.095 -405.428)" fill="#dba283" opacity="0.3"/>
          <path id="Path_5271" data-name="Path 5271" d="M336.572,158.6c-17.19,0-22.938,11.329-24.017,23.5.285,5.485.338,11.532,1.285,17.953,0-.017,0-.032,0-.049.02.114.042.229.073.351a3.472,3.472,0,0,0,.264.423c.059.107.5-.009.641-.079a.172.172,0,0,0,.079-.151c.068-1,.006-2.973,0-3-.132-1.554,2.771-19.387,6.664-22.436s8.758,1.584,14.887,4.086c2.344.957,5.874,1.021,8.467,1.021,4.04,0,7.954-4.435,8.035-5.367,4.856,7.5,6.373,21.547,6.276,22.7,0,.022-.063,2,0,3a.176.176,0,0,0,.079.151l.044.018C362.391,185.245,362.935,158.6,336.572,158.6Z" transform="translate(-283.569 -158.601)" fill="#a57c6a"/>
        </g>
      </g>
      <circle id="Ellipse_123" data-name="Ellipse 123" cx="61" cy="61" r="61" fill="none" stroke="#ff6601" stroke-miterlimit="10" stroke-width="2"/>
    </g>
  </g>
</svg>
