<svg xmlns="http://www.w3.org/2000/svg" xmlns:xlink="http://www.w3.org/1999/xlink" width="124" height="124" viewBox="0 0 124 124">
  <defs>
    <clipPath id="clip-path">
      <circle id="Ellipse_133" data-name="Ellipse 133" cx="61" cy="61" r="61" fill="#fff" stroke="#9e9e9e" stroke-miterlimit="10" stroke-width="9.798"/>
    </clipPath>
  </defs>
  <g id="no-lens-hair" transform="translate(1 1)">
    <g id="Group_1590" data-name="Group 1590">
      <g id="Group_1589" data-name="Group 1589">
        <circle id="Ellipse_130" data-name="Ellipse 130" cx="61" cy="61" r="61" fill="#fff"/>
        <g id="Group_1588" data-name="Group 1588" clip-path="url(#clip-path)">
          <g id="Group_1587" data-name="Group 1587" transform="translate(6.99 16.858)">
            <g id="Group_1586" data-name="Group 1586">
              <g id="Group_1585" data-name="Group 1585">
                <g id="Group_1583" data-name="Group 1583">
                  <g id="Group_1582" data-name="Group 1582">
                    <g id="Group_1578" data-name="Group 1578" transform="translate(0 10.638)">
                      <path id="Path_5295" data-name="Path 5295" d="M-1315.8,3295.533c23.878,10.467,31.04,16.047,33.872,18.553,4.364,3.861,6.776,18.253,9.35,30.472h-108.042c2.573-12.219,4.987-26.611,9.349-30.472,2.83-2.506,9.731-7.942,33.609-18.411Z" transform="translate(1380.621 -3237.425)" fill="#ffdecc" fill-rule="evenodd"/>
                      <path id="Path_5296" data-name="Path 5296" d="M-1315.8,3295.533c23.877,10.467,31.039,16.047,33.871,18.553,4.364,3.861,6.776,18.253,9.35,30.472h-108.042c2.573-12.219,4.987-26.611,9.349-30.472,2.83-2.506,9.731-7.942,33.609-18.411Z" transform="translate(1380.621 -3237.425)" fill="#939ba9" fill-rule="evenodd"/>
                      <path id="Path_5297" data-name="Path 5297" d="M-1009.875,3047.5v26.468c-6.376,7.539-16.81,7.81-23.187,0V3047.5C-1033.062,3033.2-1009.875,3033.2-1009.875,3047.5Z" transform="translate(1075.488 -3010.255)" fill="#f8c09a" fill-rule="evenodd"/>
                      <path id="Path_5298" data-name="Path 5298" d="M-785.78,2987.442c-2.041-.674-4.64,1.645-5.8,5.176s-.451,6.94,1.592,7.612,4.64-1.644,5.8-5.177S-783.737,2988.115-785.78,2987.442Z" transform="translate(863.976 -2966.841)" fill="#f8c09a" fill-rule="evenodd"/>
                      <path id="Path_5299" data-name="Path 5299" d="M-1150.768,2987.442c2.043-.674,4.642,1.645,5.8,5.176s.449,6.94-1.592,7.612-4.642-1.644-5.8-5.177S-1152.808,2988.115-1150.768,2987.442Z" transform="translate(1180.713 -2966.841)" fill="#f8c09a" fill-rule="evenodd"/>
                      <g id="Group_1576" data-name="Group 1576" transform="translate(30.879 2.53)">
                        <path id="Path_5300" data-name="Path 5300" d="M-1009.875,3229.582v.836s-5.923,7.03-11.572,7.284-11.615-6.806-11.615-6.806v-1.285" transform="translate(1044.609 -3182.055)" opacity="0.2"/>
                        <path id="Path_5301" data-name="Path 5301" d="M-1127.157,2869.312c.066-1,.007-2.968,0-2.99-.1-1.147-.307-2.264-.5-3.381,1.423-6.434,1.92-11.786,6.767-19.277.081.93,4.58-.52,8.612-.52,2.589,0,5.522,5.814,7.863,4.859,6.119-2.5,8.95-9.66,15.433-7.286.282.219,3.282,4.848,3.609,5.446,3.885,7.1,2.263,3.1,3.39,10.214-.227,1.517.816,6.3.685,7.855,0,.022-1.666,4.084-1.6,5.079a.172.172,0,0,0,.079.151c.145.07.581.186.64.08a3.5,3.5,0,0,0,.263-.423c.031-.121.053-.237.073-.35,0,.017,0,.032,0,.049.946-6.41,1-12.447,1.283-17.922,1.161,13.107-3.1,27.2-4.309,29.138-2.569,4.127-13.906,13.226-19.667,13.226s-17.1-9.1-19.669-13.226c-.611-.981-2-5.063-3.077-10.552l.044-.019A.176.176,0,0,0-1127.157,2869.312Z" transform="translate(1127.656 -2840.241)" fill="#f8c09a"/>
                        <g id="Group_1575" data-name="Group 1575" transform="translate(23.14)">
                          <g id="Group_1574" data-name="Group 1574">
                            <path id="Path_5302" data-name="Path 5302" d="M-759.934,3041.323c-.019.113-.042.229-.073.35a3.5,3.5,0,0,1-.263.423c-.059.106-.495-.009-.64-.079a.172.172,0,0,1-.079-.151c-.067-.992,1.587-5.032,1.6-5.078-.14,1.5-.316,3.033-.545,4.584C-759.935,3041.355-759.935,3041.34-759.934,3041.323Z" transform="translate(782.609 -3012.796)" fill="#f2b792"/>
                            <path id="Path_5303" data-name="Path 5303" d="M-747.879,3036.716v-.01s0,.006,0,.009Z" transform="translate(771.098 -3012.724)" fill="#f2b792"/>
                            <path id="Path_5304" data-name="Path 5304" d="M-937.987,2848c6.119-2.5,8.951-9.66,15.433-7.286.282.219,3.282,4.848,3.609,5.446,3.885,7.1,2.263,3.1,3.391,10.214-.227,1.514.812,6.286.685,7.846v.01c-.012.045-1.666,4.085-1.6,5.078a.172.172,0,0,0,.079.151c.145.07.581.186.64.079a3.458,3.458,0,0,0,.263-.423c.03-.121.053-.237.073-.35,0,.017,0,.032,0,.049.229-1.551.4-3.08.545-4.584h0s0-.006,0-.009c.438-4.71.522-9.18.737-13.328,1.161,13.107-3.1,27.2-4.309,29.137-2.566,4.123-13.881,13.206-19.648,13.226v-45.219C-938.055,2848.028-938.021,2848.016-937.987,2848Z" transform="translate(938.089 -2840.241)" fill="#f2b792"/>
                          </g>
                        </g>
                      </g>
                      <g id="Group_1577" data-name="Group 1577" transform="translate(55.516)">
                        <path id="Path_5305" data-name="Path 5305" d="M-925.83,2819.746c.3-.084.6-.161.894-.234-.2.058-.4.116-.6.179C-925.634,2819.709-925.732,2819.726-925.83,2819.746Z" transform="translate(925.83 -2819.512)" fill="#bf9741"/>
                      </g>
                    </g>
                    <g id="Group_1579" data-name="Group 1579" transform="translate(40.44 32.366)">
                      <circle id="Ellipse_131" data-name="Ellipse 131" cx="2.396" cy="2.396" r="2.396" transform="translate(22.284)" opacity="0.4"/>
                      <circle id="Ellipse_132" data-name="Ellipse 132" cx="2.396" cy="2.396" r="2.396" opacity="0.4"/>
                    </g>
                    <g id="Group_1581" data-name="Group 1581" transform="translate(46.879 50.883)">
                      <g id="Group_1580" data-name="Group 1580">
                        <path id="Path_5306" data-name="Path 5306" d="M-989.723,3153.74c-3.789,0-6.861-2.029-6.861-4.533h13.721C-982.863,3151.71-985.934,3153.74-989.723,3153.74Z" transform="translate(996.584 -3149.207)" fill="#ffe8d9"/>
                      </g>
                    </g>
                    <path id="Path_5307" data-name="Path 5307" d="M-958.551,3017.146h0a1.655,1.655,0,0,0-1.579,1.534l-1.009,8.7a.8.8,0,0,0,.737.924h3.664a.8.8,0,0,0,.737-.92l-.969-8.7A1.656,1.656,0,0,0-958.551,3017.146Z" transform="translate(1012.35 -2982.383)" fill="#dba283" opacity="0.3"/>
                    <path id="Path_5308" data-name="Path 5308" d="M-1111.774,2732.369c17.412,0,23.235,11.475,24.327,23.806-.289,5.556-.342,11.681-1.3,18.184,0-.017,0-.032,0-.049-.02.115-.043.232-.074.355a3.532,3.532,0,0,1-.267.429c-.06.108-.5-.01-.649-.081a.175.175,0,0,1-.08-.153c-.068-1.01-.007-3.011,0-3.034.133-1.574-2.807-19.638-6.75-22.726s-8.871,1.6-15.079,4.139c-2.374.969-5.95,1.034-8.577,1.034-4.092,0-8.056-4.493-8.139-5.437-4.918,7.6-6.455,21.825-6.357,22.99,0,.022.064,2.024,0,3.034a.178.178,0,0,1-.08.153l-.045.019C-1137.927,2759.357-1138.478,2732.369-1111.774,2732.369Z" transform="translate(1166.129 -2732.369)" fill="#a57c6a"/>
                  </g>
                </g>
                <g id="Group_1584" data-name="Group 1584" transform="translate(29.119 9.918)">
                  <path id="Path_5309" data-name="Path 5309" d="M-1105.995,2857.278a69.026,69.026,0,0,0-8.436,7.3c-4.785,4.772-10.7,11.791-16.1,12.007-10.788.434-11.547-7.389-11.547-7.389l5.428-16.625s12.8-1.914,13.042-1.326S-1105.995,2857.278-1105.995,2857.278Z" transform="translate(1142.076 -2846.551)" fill="#936e61" opacity="0.2"/>
                  <path id="Path_5310" data-name="Path 5310" d="M-1113.67,2841.232c-10.632-1.874-9.708-9.679-9.708-9.679l5.7-17.937s39.722,6.214,39.085,6.208C-1089.8,2819.7-1103.038,2843.106-1113.67,2841.232Z" transform="translate(1125.678 -2813.616)" fill="#a57c6a"/>
                </g>
                <path id="Path_5311" data-name="Path 5311" d="M-960.955,2842.695c-3.746,10.728-13.138,19.63-24.806,23.513,4.953-2.67,9.939-5.515,13.529-9.59s5.6-9.65,3.819-14.69" transform="translate(1033.961 -2828.554)" fill="#a57c6a"/>
              </g>
            </g>
          </g>
        </g>
        <circle id="Ellipse_134" data-name="Ellipse 134" cx="61" cy="61" r="61" fill="none" stroke="#ff6601" stroke-miterlimit="10" stroke-width="2"/>
      </g>
    </g>
    <g id="Group_1593" data-name="Group 1593" transform="translate(68.858 45.118)">
      <rect id="Rectangle_8004" data-name="Rectangle 8004" width="40.771" height="19.682" rx="4" fill="#fff" stroke="#aaa" stroke-miterlimit="10" stroke-width="1"/>
      <g id="Group_1592" data-name="Group 1592" transform="translate(5.964 5.403)">
        <g id="Group_1591" data-name="Group 1591">
          <path id="Path_5312" data-name="Path 5312" d="M-796.726,3009.757l.63.028v1.568l-.81.056c-.1.742-.189,1.486-.291,2.229a13,13,0,0,1-.241,1.541,2.4,2.4,0,0,1-2.6,1.822c-2.135,0-4.271-.016-6.406.01a1.708,1.708,0,0,1-1.578-.794,10.43,10.43,0,0,1-1.316-3.614c-.143-.64-.246-1.287-.38-2a8.907,8.907,0,0,0-1.22.02c-.131.018-.277.262-.318.422-.319,1.256-.567,2.528-.937,3.771a6.643,6.643,0,0,1-.868,1.622,1.384,1.384,0,0,1-1.249.566c-2.249-.009-4.5,0-6.746-.008a2.406,2.406,0,0,1-2.464-2.093c-.168-1.1-.294-2.2-.44-3.295a2.129,2.129,0,0,0-.05-.207l-.93-.046V3009.8l.763-.054c.566-1.25,1.165-1.607,2.7-1.608,2.532,0,5.065,0,7.6,0a3.388,3.388,0,0,1,2.141.661,1.018,1.018,0,0,0,.5.171c.3.027.6-.006.906.011a2.392,2.392,0,0,0,1.561-.395,3.03,3.03,0,0,1,1.53-.423c2.739-.04,5.48-.03,8.22-.013A2.241,2.241,0,0,1-796.726,3009.757Zm-20.887.021c-1,0-2-.01-3,0-.918.011-1.571.526-1.512,1.243.088,1.068.207,2.136.376,3.2.129.809.679,1.179,1.608,1.181,1.492,0,2.984,0,4.476,0,1.047,0,1.325-.1,1.633-.98a23.918,23.918,0,0,0,.808-3.072c.2-.982-.406-1.562-1.553-1.572C-815.725,3009.771-816.669,3009.777-817.613,3009.778Zm14.412,0h-2.606c-1.542,0-2.065.468-1.8,1.805a24.522,24.522,0,0,0,.91,3.147,1.085,1.085,0,0,0,1.178.684c1.6-.029,3.21-.006,4.815-.011a1.4,1.4,0,0,0,1.581-1.209c.131-.964.247-1.931.334-2.9.09-1-.449-1.507-1.575-1.516C-801.313,3009.771-802.257,3009.777-803.2,3009.777Z" transform="translate(824.939 -3008.135)" fill="#595959"/>
        </g>
        <path id="Path_5313" data-name="Path 5313" d="M-797.427,3021.567c.944,0,1.889-.006,2.833,0,1.147.01,1.756.59,1.553,1.572a23.928,23.928,0,0,1-.808,3.072c-.307.879-.586.981-1.633.98-1.492,0-2.984,0-4.476,0-.93,0-1.48-.372-1.608-1.181-.169-1.06-.289-2.128-.376-3.2-.059-.717.595-1.232,1.512-1.243C-799.429,3021.558-798.428,3021.567-797.427,3021.567Z" transform="translate(804.753 -3019.925)" fill="#c5e4f1"/>
        <path id="Path_5314" data-name="Path 5314" d="M-679.047,3021.573c.944,0,1.888-.005,2.833,0,1.125.008,1.664.514,1.575,1.516-.087.968-.2,1.934-.334,2.9a1.4,1.4,0,0,1-1.581,1.208c-1.605.005-3.211-.018-4.815.011a1.085,1.085,0,0,1-1.178-.683,24.514,24.514,0,0,1-.91-3.147c-.26-1.337.263-1.8,1.8-1.805Z" transform="translate(700.785 -3019.931)" fill="#c5e4f1"/>
      </g>
    </g>
  </g>
</svg>
