<svg xmlns="http://www.w3.org/2000/svg" width="38.053" height="38.053" viewBox="0 0 38.053 38.053">
  <g id="upload-picture" transform="translate(-2 -2)">
    <path id="Path_5208" data-name="Path 5208" d="M35.976,2H6.077A4.077,4.077,0,0,0,2,6.077v29.9a4.077,4.077,0,0,0,4.077,4.077h29.9a4.077,4.077,0,0,0,4.077-4.077V6.077A4.077,4.077,0,0,0,35.976,2ZM6.077,4.718h29.9a1.359,1.359,0,0,1,1.359,1.359V28.623l-7.189-7.2a1.359,1.359,0,0,0-1.93,0l-4.471,4.485-7.189-7.2a1.359,1.359,0,0,0-1.93,0L4.718,28.623V6.077A1.359,1.359,0,0,1,6.077,4.718Zm29.9,32.617H6.077a1.359,1.359,0,0,1-1.359-1.359v-3.52L15.59,21.584l11.266,11.28a1.365,1.365,0,1,0,1.93-1.93l-3.126-3.112,3.52-3.52,8.154,8.154v3.52A1.359,1.359,0,0,1,35.976,37.335ZM23.744,16.949a4.077,4.077,0,1,0-4.077-4.077A4.077,4.077,0,0,0,23.744,16.949Zm0-5.436a1.359,1.359,0,1,1-1.359,1.359A1.359,1.359,0,0,1,23.744,11.513Z" transform="translate(0)" fill="#ff6601"/>
  </g>
</svg>
