<svg xmlns="http://www.w3.org/2000/svg" width="8.896" height="12.5" viewBox="0 0 8.896 12.5">
  <g id="better-pass" transform="translate(0.25 0.25)">
    <path id="Path_4151" data-name="Path 4151" d="M207,15.157a.3.3,0,0,0-.3.3v6.9a.3.3,0,0,0,.3.3h7.8a.3.3,0,0,0,.3-.3v-6.9a.3.3,0,0,0-.3-.3Zm7.5.6v6.3h-7.2v-6.3Z" transform="translate(-206.704 -10.653)" fill="#fff" stroke="#fff" stroke-width="0.5" fill-rule="evenodd"/>
    <path id="Path_4151-2" data-name="Path 4151" d="M208.71,12.392V11.251a3.725,3.725,0,0,1,1-3,3.615,3.615,0,0,1,3.988,0,2.265,2.265,0,0,1,.935,2.262.3.3,0,0,1-.6,0c0-1.455-.457-1.6-.725-1.81a3.068,3.068,0,0,0-3.208,0,3.172,3.172,0,0,0-.795,2.546v1.142Z" transform="translate(-207.511 -7.646)" fill="#fff" stroke="#fff" stroke-width="0.5" fill-rule="evenodd"/>
  </g>
</svg>
