<svg id="birthday" xmlns="http://www.w3.org/2000/svg" width="17.654" height="17" viewBox="0 0 17.654 17">
  <g id="Group_1365" data-name="Group 1365" transform="translate(0 0)">
    <path id="Path_4896" data-name="Path 4896" d="M58.591,52.069a9.728,9.728,0,0,0-2.473.118A9.114,9.114,0,0,0,52.6,53.528q-.3-.383-.637-.767a8.464,8.464,0,0,1,3-1.9.4.4,0,0,0-.22-.771,8.988,8.988,0,0,0-3.323,2.072c-.26-.275-.515-.531-.806-.806a8.956,8.956,0,0,0,2.072-3.323.4.4,0,1,0-.771-.22,8.258,8.258,0,0,1-1.9,3c-.256-.224-.515-.436-.767-.637A9.118,9.118,0,0,0,50.6,46.67a9.95,9.95,0,0,0,.118-2.473.4.4,0,0,0-.8.09,9.187,9.187,0,0,1-1.305,5.419,5.159,5.159,0,0,0-2.332-1.113.637.637,0,0,0-.672.5L42.08,58.2a1.939,1.939,0,0,0,2.509,2.509c9.842-3.826,9.28-3.563,9.418-3.7.319-.319.149-.838.094-1.007a7.806,7.806,0,0,0-1.018-1.828,8.4,8.4,0,0,1,3.142-1.191,8.934,8.934,0,0,1,2.277-.114.4.4,0,1,0,.09-.8Zm-6.217,4.762-1.235.48a14.37,14.37,0,0,1-5.658-5.658l.476-1.227A18.271,18.271,0,0,0,52.374,56.831ZM44.3,59.961a1.137,1.137,0,0,1-1.471-1.471L45.1,52.639a16.183,16.183,0,0,0,5.053,5.053Zm9.076-3.582a8.988,8.988,0,0,1-2.552-1.561,18.474,18.474,0,0,1-3.877-4.274,4.536,4.536,0,0,1-.539-1.132,5.871,5.871,0,0,1,1.73.94c-.118.142-.244.283-.377.421a.4.4,0,0,0,.287.68.4.4,0,0,0,.287-.122c.157-.161.307-.326.448-.5.216.169.436.354.668.554-.079.071-.157.142-.24.212a.4.4,0,0,0,.26.708.406.406,0,0,0,.26-.094q.165-.142.319-.283c.295.279.547.531.814.814q-.142.153-.283.319a.4.4,0,0,0,.613.519c.071-.083.142-.165.212-.24.193.22.377.444.554.668-.173.142-.342.291-.5.448a.4.4,0,0,0,.562.57c.138-.134.279-.26.421-.377A6.64,6.64,0,0,1,53.377,56.379Z" transform="translate(-41.694 -43.84)" fill="#f60"/>
    <circle id="Ellipse_106" data-name="Ellipse 106" cx="0.401" cy="0.401" r="0.401" transform="translate(16.452 1.206)" fill="#f60"/>
    <circle id="Ellipse_107" data-name="Ellipse 107" cx="0.401" cy="0.401" r="0.401" transform="translate(10.432 0.403)" fill="#f60"/>
    <circle id="Ellipse_108" data-name="Ellipse 108" cx="0.401" cy="0.401" r="0.401" transform="translate(13.24 12.44)" fill="#f60"/>
    <path id="Path_4897" data-name="Path 4897" d="M301.2,431.6a.4.4,0,1,0,.4.4A.4.4,0,0,0,301.2,431.6Z" transform="translate(-290.368 -416.353)" fill="#f60"/>
    <circle id="Ellipse_109" data-name="Ellipse 109" cx="0.401" cy="0.401" r="0.401" transform="translate(2.812 0.403)" fill="#f60"/>
    <rect id="Rectangle_7800" data-name="Rectangle 7800" width="0.802" height="0.802" transform="matrix(-0.707, 0.707, -0.707, -0.707, 1.94, 6.253)" fill="#f60"/>
    <path id="Path_4898" data-name="Path 4898" d="M332.536,97.17l-.566-.57-.57.57.57.566Z" transform="translate(-319.765 -94.525)" fill="#f60"/>
    <rect id="Rectangle_7801" data-name="Rectangle 7801" width="0.802" height="0.802" transform="translate(17.087 6.02) rotate(-135)" fill="#f60"/>
    <rect id="Rectangle_7802" data-name="Rectangle 7802" width="0.802" height="0.802" transform="translate(15.483 10.5) rotate(45)" fill="#f60"/>
    <path id="Path_4899" data-name="Path 4899" d="M171.036,95.466l-.566-.566-.57.566.57.566Z" transform="translate(-164.615 -92.892)" fill="#f60"/>
    <path id="Path_4900" data-name="Path 4900" d="M414,401a1,1,0,1,0,1,1A1,1,0,0,0,414,401Zm0,1.2a.2.2,0,1,1,.2-.2A.2.2,0,0,1,414,402.2Z" transform="translate(-398.156 -386.956)" fill="#f60"/>
    <path id="Path_4901" data-name="Path 4901" d="M36.7,97.307a1.2,1.2,0,1,0-1.2-1.2A1.2,1.2,0,0,0,36.7,97.307Zm0-1.6a.4.4,0,1,1-.4.4A.4.4,0,0,1,36.7,95.7Z" transform="translate(-35.5 -92.892)" fill="#f60"/>
    <path id="Path_4902" data-name="Path 4902" d="M382.723,68.14l1.1.661a.4.4,0,0,0,.413-.688l-.83-.5.727-.436a.614.614,0,0,0,.3-.527v-.016a.615.615,0,0,0-.244-.492l-.551-.413.311-.157a.869.869,0,0,0,.484-.783V64.6a.4.4,0,1,0-.8,0v.189a.076.076,0,0,1-.039.067l-.582.291a.615.615,0,0,0-.094,1.042l.578.433-.771.464A.615.615,0,0,0,382.723,68.14Z" transform="translate(-368.783 -63.399)" fill="#f60"/>
  </g>
</svg>
