<svg xmlns="http://www.w3.org/2000/svg" width="17" height="17" viewBox="0 0 17 17">
  <g id="checked" transform="translate(0.5 0.5)">
    <path id="Path_3821" data-name="Path 3821" d="M538.575,436.723a8,8,0,1,1,8-8A8,8,0,0,1,538.575,436.723Zm0-15.724a7.724,7.724,0,1,0,7.724,7.724A7.724,7.724,0,0,0,538.575,421Z" transform="translate(-530.575 -420.723)" fill="#f60" stroke="#f60" stroke-width="1"/>
    <path id="Path_3824" data-name="Path 3824" d="M561.056,456.9a1.029,1.029,0,0,1-.619-.206l-.011-.008-2.332-1.785a1.036,1.036,0,0,1,1.26-1.645l1.51,1.158,3.569-4.654a1.036,1.036,0,0,1,1.452-.192l-.022.03.023-.03a1.037,1.037,0,0,1,.192,1.452l-4.2,5.475A1.036,1.036,0,0,1,561.056,456.9Z" transform="translate(-553.949 -445.409)" fill="#f60"/>
  </g>
</svg>
