<svg xmlns="http://www.w3.org/2000/svg" width="24" height="24" viewBox="0 0 24 24">
  <g id="chevron-down" transform="translate(24 24) rotate(180)">
    <path id="Path_4008" data-name="Path 4008" d="M0,24H24V0H0Z" transform="translate(0)" fill="none"/>
    <g id="Group_329" data-name="Group 329" transform="translate(19.222 8.14) rotate(90)">
      <path id="Path_30" data-name="Path 30" d="M.007,6.992a1.022,1.022,0,0,1,.289-.6L6.292.3A.991.991,0,0,1,7.708.3a1.03,1.03,0,0,1,0,1.44L2.419,7.111,7.7,12.482a1.03,1.03,0,0,1,0,1.44.991.991,0,0,1-1.417,0L.3,7.833A1.025,1.025,0,0,1,.007,6.992Z" fill="#f60"/>
    </g>
  </g>
</svg>
