<svg xmlns="http://www.w3.org/2000/svg" width="16" height="16" viewBox="0 0 16 16">
  <path id="close" d="M-781.732,577.02l5.874-5.875,5.873,5.876a1.2,1.2,0,0,0,.876.361h0a1.238,1.238,0,0,0,.885-.362,1.25,1.25,0,0,0,0-1.762l-5.874-5.874,5.874-5.873a1.247,1.247,0,0,0,0-1.76l-.024-.024a1.247,1.247,0,0,0-1.738.023l-5.874,5.874-5.952-5.958a1.219,1.219,0,0,0-.8-.282h0a1.232,1.232,0,0,0-.874.365l-.014.015a1.24,1.24,0,0,0,.01,1.745l5.873,5.875-5.9,5.907a1.245,1.245,0,0,0,.032,1.728A1.245,1.245,0,0,0-781.732,577.02Z" transform="translate(783.857 -561.384)" fill="#f60"/>
</svg>
