<svg xmlns="http://www.w3.org/2000/svg" width="17.978" height="16.2" viewBox="0 0 17.978 16.2">
  <path id="company" d="M-3450.741-4032h-10.667a.592.592,0,0,1-.592-.593v-14.815a.592.592,0,0,1,.592-.592h10.667a.592.592,0,0,1,.593.592v5.927h5.333a.592.592,0,0,1,.593.592v8.3a.593.593,0,0,1-.593.593Zm.593-1.186h4.741v-7.111h-4.741Zm-1.185,0v-13.629h-9.482v13.629h1.778v-3.556a.592.592,0,0,1,.593-.592h4.74a.593.593,0,0,1,.593.592v3.556Zm-2.963,0v-2.962h-3.555v2.962Zm5.333-2.37a.592.592,0,0,1-.592-.592.592.592,0,0,1,.592-.593h2.371a.592.592,0,0,1,.593.593.592.592,0,0,1-.593.592Zm0-2.37a.592.592,0,0,1-.592-.593.592.592,0,0,1,.592-.592h2.371a.592.592,0,0,1,.593.592.592.592,0,0,1-.593.593Zm-4.741-.593c-.022,0-.044,0-.065,0-.076,0-.153,0-.231,0h-4.148c-.078,0-.155,0-.23,0-.021,0-.043,0-.065,0h-1.186a.592.592,0,0,1-.593-.592.593.593,0,0,1,.593-.592h1.186c.022,0,.044,0,.065,0,.075,0,.152,0,.23,0H-3454c.078,0,.155,0,.231,0,.021,0,.043,0,.065,0h1.185a.592.592,0,0,1,.592.592.592.592,0,0,1-.592.592Zm0-2.962a.574.574,0,0,1-.065,0c-.076,0-.153,0-.231,0h-4.148c-.078,0-.155,0-.23,0a.581.581,0,0,1-.065,0h-1.186a.592.592,0,0,1-.593-.593.592.592,0,0,1,.593-.593h1.186a.581.581,0,0,1,.065,0c.075,0,.152,0,.23,0H-3454c.078,0,.155,0,.231,0a.574.574,0,0,1,.065,0h1.185a.592.592,0,0,1,.592.593.592.592,0,0,1-.592.593Zm0-2.963a.574.574,0,0,1-.065,0c-.076,0-.153,0-.231,0h-4.148c-.078,0-.155,0-.23,0a.581.581,0,0,1-.065,0h-1.186a.593.593,0,0,1-.593-.593.592.592,0,0,1,.593-.593h1.186a.581.581,0,0,1,.065,0c.075,0,.152,0,.23,0H-3454c.078,0,.155,0,.231,0a.575.575,0,0,1,.065,0h1.185a.592.592,0,0,1,.592.593.592.592,0,0,1-.592.593Z" transform="translate(3462.1 4048.1)" fill="#f60" stroke="#fff" stroke-width="0.2"/>
</svg>
