<svg xmlns="http://www.w3.org/2000/svg" width="16.503" height="16" viewBox="0 0 16.503 16">
  <path id="date" d="M13.794,10.57h-.54a1.42,1.42,0,0,0-1.42,1.42v.2h-.272A2.232,2.232,0,0,0,9.33,14.425v9.913a2.232,2.232,0,0,0,2.232,2.232H23.6a2.232,2.232,0,0,0,2.232-2.232V14.427A2.232,2.232,0,0,0,23.6,12.2h-.272v-.2a1.42,1.42,0,0,0-1.42-1.42h-.54a1.42,1.42,0,0,0-1.42,1.42v.2H15.214v-.2a1.42,1.42,0,0,0-1.42-1.422Zm-.745,1.42a.2.2,0,0,1,.2-.2h.542a.2.2,0,0,1,.2.2v1.623a.2.2,0,0,1-.2.2h-.54a.2.2,0,0,1-.2-.2ZM24.614,24.338A1.014,1.014,0,0,1,23.6,25.353H11.562a1.014,1.014,0,0,1-1.014-1.014V17.493H24.616ZM21.165,11.99a.2.2,0,0,1,.2-.2h.542a.2.2,0,0,1,.2.2v1.623a.2.2,0,0,1-.2.2h-.54a.2.2,0,0,1-.2-.2Zm-1.217,1.42v.2a1.42,1.42,0,0,0,1.42,1.42h.542a1.42,1.42,0,0,0,1.42-1.42v-.2h.27a1.014,1.014,0,0,1,1.014,1.014v1.846H10.547V14.425a1.014,1.014,0,0,1,1.014-1.014h.27v.2a1.42,1.42,0,0,0,1.42,1.42h.542a1.42,1.42,0,0,0,1.42-1.42v-.2Z" transform="translate(-9.33 -10.57)" fill="#f60"/>
</svg>
