<svg xmlns="http://www.w3.org/2000/svg" width="95.009" height="123.032" viewBox="0 0 95.009 123.032">
  <g id="graphic-selfie" transform="translate(27.458 -2.455)">
    <path id="Path_5196" data-name="Path 5196" d="M-16.117,13.246a5,5,0,0,0,5-5,5,5,0,0,0-5-5,5,5,0,0,0-5,5A5.012,5.012,0,0,0-16.117,13.246Zm-2.114-5a2.118,2.118,0,0,1,2.114-2.108A2.112,2.112,0,0,1-14,8.249a2.112,2.112,0,0,1-2.114,2.114,2.115,2.115,0,0,1-2.114-2.114Z" transform="translate(30.275 3.754)" fill="#f60"/>
    <path id="Path_5197" data-name="Path 5197" d="M66.893,101.456l-.1-.116v-.017l-5.777-6.441a18.03,18.03,0,0,1-4.373-9.1,91.184,91.184,0,0,0-6.707-24.5A128.663,128.663,0,0,0,35.785,38.461V16.209A13.769,13.769,0,0,0,22.031,2.455h-35.74A13.772,13.772,0,0,0-27.458,16.209v87.806a13.772,13.772,0,0,0,13.749,13.754H22.025a13.689,13.689,0,0,0,2.831-.295c3.345,1.1,6.152,1.895,8.353,2.374a9.616,9.616,0,0,1,5.159,4.3,2.973,2.973,0,0,0,2,1.3,3.169,3.169,0,0,0,.462.035,2.991,2.991,0,0,0,1.877-.664l23.736-19.19A2.972,2.972,0,0,0,66.893,101.456ZM22.025,114.863H-13.709A10.882,10.882,0,0,1-24.57,104V16.209A10.882,10.882,0,0,1-13.709,5.343H22.025A10.876,10.876,0,0,1,32.891,16.209V34.631c-.635-.826-1.155-1.519-1.594-2.051a2.967,2.967,0,0,0-1.56-1.034V20.1a1.445,1.445,0,0,0-1.444-1.444h-48.27A1.445,1.445,0,0,0-21.421,20.1V100.11a1.446,1.446,0,0,0,1.433,1.444H28.293a1.431,1.431,0,0,0,1.444-1.433V52.862l.22.358A21.193,21.193,0,0,1,32.9,64.312V104A10.877,10.877,0,0,1,22.025,114.863ZM23.96,40.587a45.034,45.034,0,0,0,2.888,7.048V75.183A21.8,21.8,0,0,0,14.5,68.621a7.562,7.562,0,0,1-3.246-2.057,16.746,16.746,0,0,0,7.105-15.892c.838-7.723-2.634-10.4-4.4-11.241a7.61,7.61,0,0,0-2.392-4A9.6,9.6,0,0,0,4.1,33.609a25.671,25.671,0,0,1-15.019-1.155,1.44,1.44,0,0,0-2.028.2,1.506,1.506,0,0,0-.283.549,21.111,21.111,0,0,0,3.108,17.989A16.576,16.576,0,0,0-2.965,66.559a7.527,7.527,0,0,1-3.246,2.056A21.912,21.912,0,0,0-18.562,75.16V21.541H26.82V32.263A7.186,7.186,0,0,0,23.96,40.587ZM-7.292,52A49.778,49.778,0,0,0,6.18,48.3a4.332,4.332,0,0,1,4.54.745,12.847,12.847,0,0,0,4.858,2.888A13.02,13.02,0,0,1,6.3,65.681a7.051,7.051,0,0,1-4.286,0A13,13,0,0,1-7.263,52.007Zm-.757-2.819A16.932,16.932,0,0,1-10.81,35.827a33.659,33.659,0,0,0,15.262.641,6.815,6.815,0,0,1,5.2,1.155,4.746,4.746,0,0,1,1.571,2.963,1.5,1.5,0,0,0,1.109,1.323c.15.04,3.414.959,3.252,6.967A11.645,11.645,0,0,1,12.615,46.9a7.236,7.236,0,0,0-7.591-1.248A46.214,46.214,0,0,1-8.048,49.183ZM-.325,67.9c.456.179.93.358,1.433.514a10.058,10.058,0,0,0,6.037,0c.508-.162.994-.341,1.462-.526A8.466,8.466,0,0,0,10.8,70L4.949,72.78a1.912,1.912,0,0,1-1.646,0l-5.788-2.773A8.068,8.068,0,0,0-.325,67.9ZM2.1,75.4a4.791,4.791,0,0,0,4.13,0l8.087-3.859a15.785,15.785,0,0,1,12.507,9.4v7.706h-3.35l-.578-7.29a1.426,1.426,0,0,0-1.531-1.323h-.023a1.447,1.447,0,0,0-1.323,1.554l.578,7.059H-12.26l.578-7.059a1.449,1.449,0,0,0-1.329-1.56,1.449,1.449,0,0,0-1.56,1.329l-.578,7.29h-3.385V80.85A15.946,15.946,0,0,1-6.026,71.538ZM26.849,91.531v7.134H-18.533V91.531Zm13.9,31.015a12.119,12.119,0,0,0-6.932-5.54c-1.306-.289-2.888-.7-4.691-1.242a13.754,13.754,0,0,0,6.649-11.773V64.525A23.791,23.791,0,0,0,32.406,51.7c0-.035-1.369-2.178-2.807-5.014l-.052-.1a43.774,43.774,0,0,1-2.825-6.8,4.325,4.325,0,0,1,2.311-5.407A161.406,161.406,0,0,1,47.263,62.382a87.233,87.233,0,0,1,6.528,23.875,20.906,20.906,0,0,0,5.066,10.554l5.777,6.562Z" transform="translate(0)" fill="#f60"/>
    <path id="Path_5198" data-name="Path 5198" d="M-18.164,19.961a4.624,4.624,0,0,0-4.621,4.621A4.624,4.624,0,0,0-18.164,29.2a4.62,4.62,0,0,0,4.621-4.621A4.62,4.62,0,0,0-18.164,19.961Zm.012,6.366h-.012v-.012A1.734,1.734,0,0,1-19.9,24.582a1.734,1.734,0,0,1,1.733-1.733,1.731,1.731,0,0,1,1.733,1.733A1.727,1.727,0,0,1-18.152,26.327Z" transform="translate(22.321 83.621)" fill="#f60"/>
  </g>
</svg>
