<svg xmlns="http://www.w3.org/2000/svg" width="230" height="114.968" viewBox="0 0 230 114.968">
  <g id="graphic-id-selfie" transform="translate(-8143.176 -3393)">
    <g id="Group_1438" data-name="Group 1438" transform="translate(8143.176 3417)">
      <path id="Path_5176" data-name="Path 5176" d="M110.089,11.63a9.633,9.633,0,0,0-9.622-9.622H13.692A9.634,9.634,0,0,0,4.121,11.63V59.05a9.629,9.629,0,0,0,9.571,9.635h86.775a9.633,9.633,0,0,0,9.622-9.622ZM56.595,65.494l-.5-6.3a1.616,1.616,0,0,0-1.716-1.461,1.6,1.6,0,0,0-1.461,1.71v.006l.479,6.042H24.437l.485-6.042a1.578,1.578,0,0,0-1.448-1.71l-.013-.006A1.632,1.632,0,0,0,21.744,59.2l-.51,6.3H17.093a36.95,36.95,0,0,1,1.6-6.463,13.892,13.892,0,0,1,11.013-8.352l7.216,3.433a4.586,4.586,0,0,0,3.981,0l7.223-3.433a13.845,13.845,0,0,1,11.026,8.486,50.638,50.638,0,0,1,1.563,6.329ZM40.828,29.706h.051a3.613,3.613,0,0,1,3.784.632,12.1,12.1,0,0,0,4.281,2.6,11.423,11.423,0,0,1-8.161,11.893,6.065,6.065,0,0,1-3.688,0,11.4,11.4,0,0,1-8.161-11.778A45.282,45.282,0,0,0,40.828,29.706Zm-12.767.2a14.808,14.808,0,0,1-2.38-11.319,31.571,31.571,0,0,0,13.559.466A5.834,5.834,0,0,1,43.706,20a3.952,3.952,0,0,1,1.314,2.476,1.64,1.64,0,0,0,1.219,1.448c.121.045,2.686.8,2.712,5.545a11.657,11.657,0,0,1-2.189-1.557A6.825,6.825,0,0,0,39.6,26.764,41.422,41.422,0,0,1,28.061,29.91Zm6.948,17.527c.364.147.74.281,1.123.4a9.267,9.267,0,0,0,5.615,0,11.62,11.62,0,0,0,1.123-.4,7.525,7.525,0,0,0,1.474,1.512h.026l-4.817,2.278a1.379,1.379,0,0,1-1.225,0l-4.811-2.278A7.292,7.292,0,0,0,35.009,47.437Zm65.458,18.057H63.958A53.711,53.711,0,0,0,62.2,58.233a16.932,16.932,0,0,0-13.89-10.777,6.7,6.7,0,0,1-2.552-1.512A15.019,15.019,0,0,0,52.02,31.55c.727-6.91-2.3-9.437-4-10.3a6.972,6.972,0,0,0-2.227-3.637,9,9,0,0,0-6.974-1.71,22.476,22.476,0,0,1-13.3-.983,1.6,1.6,0,0,0-2.552.829,19.4,19.4,0,0,0,2.769,16.372,14.986,14.986,0,0,0,6.323,13.82A6.8,6.8,0,0,1,29.5,47.456,16.982,16.982,0,0,0,15.657,57.991a39.43,39.43,0,0,0-1.8,7.5h-.166A6.442,6.442,0,0,1,7.311,59.05V11.63A6.443,6.443,0,0,1,13.692,5.2h86.775A6.446,6.446,0,0,1,106.9,11.63l-.019,47.433A6.442,6.442,0,0,1,100.467,65.494Z" transform="translate(-4.121 -2.008)" fill="#f60"/>
      <path id="Path_5177" data-name="Path 5177" d="M47.992,6.056H15.362a1.6,1.6,0,1,0,0,3.2h32.63a1.6,1.6,0,0,0,0-3.2Z" transform="translate(47.742 19.772)" fill="#f60"/>
      <path id="Path_5178" data-name="Path 5178" d="M15.362,4.992a1.6,1.6,0,1,0,0,3.2H30.075a1.6,1.6,0,1,0,0-3.2Z" transform="translate(47.742 14.047)" fill="#f60"/>
      <path id="Path_5179" data-name="Path 5179" d="M47.992,7.159H15.362a1.6,1.6,0,1,0,0,3.2h32.63a1.6,1.6,0,0,0,0-3.2Z" transform="translate(47.742 25.707)" fill="#f60"/>
      <path id="Path_5180" data-name="Path 5180" d="M47.992,8.262H15.362a1.6,1.6,0,1,0,0,3.2h32.63a1.6,1.6,0,0,0,0-3.2Z" transform="translate(47.742 31.642)" fill="#f60"/>
      <path id="Path_5181" data-name="Path 5181" d="M32.883,9.186H18.163a1.6,1.6,0,0,0,0,3.2h14.72a1.6,1.6,0,0,0,0-3.2Z" transform="translate(62.851 36.613)" fill="#f60"/>
    </g>
    <g id="Group_1439" data-name="Group 1439" transform="translate(8310.134 3393)">
      <path id="Path_5192" data-name="Path 5192" d="M100.247,23.813A3.744,3.744,0,1,0,96.5,20.068,3.744,3.744,0,0,0,100.247,23.813Zm-.866-3.743a.866.866,0,1,1,.866.869.866.866,0,0,1-.866-.869Z" transform="translate(-57.925 -10.554)" fill="#f60"/>
      <path id="Path_5193" data-name="Path 5193" d="M73.074,244.793a4.607,4.607,0,1,0,4.607,4.607A4.607,4.607,0,0,0,73.074,244.793Zm.012,6.347h-.012v-.012a1.222,1.222,0,1,1,.012.012Z" transform="translate(-41.553 -143.97)" fill="#f60"/>
      <path id="Path_5194" data-name="Path 5194" d="M53.113,2.455H17.484A13.724,13.724,0,0,0,3.777,16.168V103.71a13.724,13.724,0,0,0,13.707,13.713H53.113A13.724,13.724,0,0,0,66.82,103.71V16.168A13.724,13.724,0,0,0,53.113,2.455ZM63.94,103.693a10.845,10.845,0,0,1-10.828,10.833H17.484A10.845,10.845,0,0,1,6.657,103.693V16.168A10.844,10.844,0,0,1,17.484,5.335H53.113A10.845,10.845,0,0,1,63.94,16.168Z" transform="translate(-3.777 -2.455)" fill="#f60"/>
      <path id="Path_5195" data-name="Path 5195" d="M67.808,41.271H19.683a1.439,1.439,0,0,0-1.44,1.44v79.773a1.434,1.434,0,0,0,1.428,1.44H67.808a1.434,1.434,0,0,0,1.44-1.428V42.711A1.44,1.44,0,0,0,67.808,41.271Zm-1.44,79.773H21.123v-7.113H66.369ZM32.331,74.52a49.694,49.694,0,0,0,13.431-3.686,4.329,4.329,0,0,1,4.527.743,12.724,12.724,0,0,0,4.844,2.88,12.982,12.982,0,0,1-9.25,13.7,7.028,7.028,0,0,1-4.273,0A12.959,12.959,0,0,1,32.36,74.525Zm-.754-2.81a16.869,16.869,0,0,1-2.753-13.315,33.5,33.5,0,0,0,15.216.639,6.812,6.812,0,0,1,5.183,1.152,4.739,4.739,0,0,1,1.567,2.954A1.491,1.491,0,0,0,51.9,64.458c.15.04,3.4.956,3.243,6.946a11.631,11.631,0,0,1-2.961-1.976,7.222,7.222,0,0,0-7.567-1.244A46.136,46.136,0,0,1,31.577,71.709Zm7.7,18.659c.458.18.931.355,1.433.514a10.03,10.03,0,0,0,6.019,0c.507-.161.991-.34,1.457-.524a8.3,8.3,0,0,0,2.183,2.108l-5.828,2.77a1.91,1.91,0,0,1-1.642,0l-5.771-2.765A8.112,8.112,0,0,0,39.272,90.368Zm2.418,7.477a4.774,4.774,0,0,0,4.118,0L53.871,94a15.756,15.756,0,0,1,12.469,9.371v7.683H63l-.576-7.268a1.428,1.428,0,0,0-1.529-1.321l-.021,0a1.44,1.44,0,0,0-1.319,1.549l.576,7.038H27.378l.576-7.038a1.445,1.445,0,1,0-2.88-.23l-.576,7.268H21.123v-7.769A15.89,15.89,0,0,1,33.592,94Zm12.371-6.756a7.516,7.516,0,0,1-3.237-2.05,16.7,16.7,0,0,0,7.084-15.844c.835-7.7-2.626-10.367-4.388-11.207A7.583,7.583,0,0,0,51.136,58a9.59,9.59,0,0,0-7.447-1.82A25.568,25.568,0,0,1,28.714,55.03a1.44,1.44,0,0,0-2.3.749,21.022,21.022,0,0,0,3.1,17.935,16.517,16.517,0,0,0,7.136,15.32,7.553,7.553,0,0,1-3.237,2.05,21.8,21.8,0,0,0-12.314,6.526V44.15H66.34l.029,53.482A21.718,21.718,0,0,0,54.061,91.089Z" transform="translate(-12.225 -25.122)" fill="#f60"/>
    </g>
    <path id="Union_62" data-name="Union 62" d="M12.743,26.985V14.991H1.5a1.5,1.5,0,1,1,0-3H12.743V1.5a1.5,1.5,0,0,1,3,0V11.993H26.985a1.5,1.5,0,1,1,0,3H15.741V26.985a1.5,1.5,0,1,1-3,0Z" transform="translate(8265.932 3436)" fill="#f60"/>
  </g>
</svg>
