<svg xmlns="http://www.w3.org/2000/svg" width="16.46" height="14.873" viewBox="0 0 16.46 14.873">
  <path id="hide" d="M17.483,2.617a.4.4,0,0,1,0,.566l-2.7,2.7a9.058,9.058,0,0,1,2.353,2.26,8.857,8.857,0,0,1,.625.99c.068.126.118.227.152.3.017.036.03.064.039.084l.01.024,0,.007v0h0L17.6,9.7l.369.154v0l0,0-.006.013-.021.046c-.018.039-.044.1-.079.165-.07.14-.176.338-.32.573a9.368,9.368,0,0,1-1.358,1.724A8.5,8.5,0,0,1,10,14.9a8.817,8.817,0,0,1-3.531-.7L3.883,16.783a.4.4,0,1,1-.566-.566l13.6-13.6A.4.4,0,0,1,17.483,2.617ZM7.083,13.583A8.106,8.106,0,0,0,10,14.1a7.7,7.7,0,0,0,5.617-2.283,8.567,8.567,0,0,0,1.242-1.576c.131-.214.226-.392.287-.514l.014-.027c-.026-.052-.059-.117-.1-.192a8.064,8.064,0,0,0-.568-.9,8.224,8.224,0,0,0-2.284-2.15l-1.8,1.8A2.8,2.8,0,0,1,8.563,12.1Zm2.07-2.07a2,2,0,0,0,2.659-2.659ZM17.6,9.7l.369.154a.4.4,0,0,0,0-.309ZM2.841,9.7l.014-.027c.061-.122.156-.3.287-.514A8.57,8.57,0,0,1,4.383,7.583,7.7,7.7,0,0,1,10,5.3a.4.4,0,0,0,0-.8A8.5,8.5,0,0,0,3.817,7.017,9.367,9.367,0,0,0,2.459,8.742c-.144.236-.249.433-.32.573-.035.07-.061.126-.079.165l-.021.046-.006.013,0,0h0s0,0,.369.155l-.369-.154a.4.4,0,0,0,0,.308L2.4,9.7l-.369.154v0l0,.008.013.029c.011.025.027.059.048.1.042.088.1.213.19.365a9.111,9.111,0,0,0,.79,1.183.4.4,0,0,0,.629-.494,8.31,8.31,0,0,1-.72-1.078C2.924,9.864,2.876,9.771,2.841,9.7ZM10,7.7a2,2,0,0,0-2,2,.4.4,0,1,1-.8,0A2.8,2.8,0,0,1,10,6.9a.4.4,0,0,1,0,.8Z" transform="translate(-1.768 -2.264)" fill="#f60" stroke="#f60" stroke-width="0.4" fill-rule="evenodd"/>
</svg>
