<svg xmlns="http://www.w3.org/2000/svg" width="16.3" height="11.645" viewBox="0 0 16.3 11.645">
  <g id="id" transform="translate(-2.35 -22.55)">
    <path id="Path_4246" data-name="Path 4246" d="M16.515,22.7H4.468A1.968,1.968,0,0,0,2.5,24.663v7.418a1.968,1.968,0,0,0,1.968,1.963H16.532A1.968,1.968,0,0,0,18.5,32.081V24.647A1.98,1.98,0,0,0,16.515,22.7Zm1.346,9.381a1.33,1.33,0,0,1-1.329,1.326H4.468a1.33,1.33,0,0,1-1.329-1.326V24.647a1.33,1.33,0,0,1,1.329-1.326H16.532a1.32,1.32,0,0,1,1.329,1.326Z" transform="translate(0 0)" fill="#f60" stroke="#f60" stroke-width="0.3"/>
    <path id="Path_4247" data-name="Path 4247" d="M58.361,43.9H53.92a.319.319,0,0,0-.32.319.309.309,0,0,0,.32.319h4.442a.319.319,0,0,0,.32-.319A.309.309,0,0,0,58.361,43.9Z" transform="translate(-42.503 -17.642)" fill="#f60" stroke="#f60" stroke-width="0.3"/>
    <path id="Path_4248" data-name="Path 4248" d="M58.361,58.7H53.92a.319.319,0,1,0,0,.638h4.442a.319.319,0,0,0,.32-.319A.309.309,0,0,0,58.361,58.7Z" transform="translate(-42.503 -29.959)" fill="#f60" stroke="#f60" stroke-width="0.3"/>
    <path id="Path_4249" data-name="Path 4249" d="M58.361,73.4H53.92a.319.319,0,1,0,0,.638h4.442a.319.319,0,0,0,.32-.319A.309.309,0,0,0,58.361,73.4Z" transform="translate(-42.503 -42.192)" fill="#f60" stroke="#f60" stroke-width="0.3"/>
    <path id="Path_4250" data-name="Path 4250" d="M19.165,44.321a1.644,1.644,0,0,0,.69-1.343,1.682,1.682,0,0,0-3.365,0,1.644,1.644,0,0,0,.69,1.343,2.993,2.993,0,0,0-1.38,2.584.32.32,0,0,0,.639,0c0-1.158.858-2.249,1.75-2.249.909,0,1.75,1.091,1.75,2.249a.32.32,0,0,0,.639,0A3.1,3.1,0,0,0,19.165,44.321Zm-1.009-.3a1.057,1.057,0,1,1,1.06-1.057A1.054,1.054,0,0,1,18.155,44.019Z" transform="translate(-11.062 -15.479)" fill="#f60" stroke="#f60" stroke-width="0.3"/>
  </g>
</svg>
