<svg xmlns="http://www.w3.org/2000/svg" width="8.891" height="11.296" viewBox="0 0 8.891 11.296">
  <path id="ideal-pass" d="M170.614,12.949h-.9a.3.3,0,0,0-.3.3v6.893a.3.3,0,0,0,.3.3H177.5a.3.3,0,0,0,.3-.3V13.249a.3.3,0,0,0-.3-.3h-.9a3.505,3.505,0,0,0-1-2.7,3.614,3.614,0,0,0-3.986,0A3.512,3.512,0,0,0,170.614,12.949Zm.6,0H176a2.932,2.932,0,0,0-.789-2.245,3.066,3.066,0,0,0-3.206,0,2.932,2.932,0,0,0-.789,2.245Zm-1.2.6v6.293H177.2V13.548Z" transform="translate(-169.16 -9.395)" fill="#fff" stroke="#fff" stroke-width="0.5" fill-rule="evenodd"/>
</svg>
