<svg xmlns="http://www.w3.org/2000/svg" width="14.3" height="10.067" viewBox="0 0 14.3 10.067">
  <g id="mail" transform="translate(0.15 0.15)">
    <path id="Path_4104" data-name="Path 4104" d="M8.3,972.362a1.307,1.307,0,0,0-1.3,1.3v7.163a1.307,1.307,0,0,0,1.3,1.3H19.7a1.307,1.307,0,0,0,1.3-1.3v-7.163a1.307,1.307,0,0,0-1.3-1.3Zm0,.651H19.7a.671.671,0,0,1,.158.02l-5.387,5.311a.671.671,0,0,1-.946,0l-5.377-5.311A.671.671,0,0,1,8.3,973.013Zm-.626.473,3.983,3.938-3.973,3.6a.655.655,0,0,1-.036-.2v-7.163A.663.663,0,0,1,7.677,973.487Zm12.642,0a.654.654,0,0,1,.031.178v7.163a.653.653,0,0,1-.036.2l-3.978-3.607Zm-4.446,4.39,3.958,3.586a.671.671,0,0,1-.132.015H8.3a.671.671,0,0,1-.132-.015l3.953-3.581.941.926a1.33,1.33,0,0,0,1.862,0Z" transform="translate(-7 -972.362)" fill="#f60" stroke="#f60" stroke-width="0.3"/>
  </g>
</svg>
