<svg xmlns="http://www.w3.org/2000/svg" width="15.5" height="10.965" viewBox="0 0 15.5 10.965">
  <g id="mail" transform="translate(0.25 0.25)">
    <path id="Path_4104" data-name="Path 4104" d="M8.4,972.362a1.4,1.4,0,0,0-1.4,1.4v7.674a1.4,1.4,0,0,0,1.4,1.4H20.6a1.4,1.4,0,0,0,1.4-1.4v-7.674a1.4,1.4,0,0,0-1.4-1.4Zm0,.7H20.6a.719.719,0,0,1,.169.022L15,978.772a.719.719,0,0,1-1.014,0l-5.761-5.69A.719.719,0,0,1,8.4,973.06Zm-.67.507,4.268,4.219-4.257,3.859a.7.7,0,0,1-.038-.212v-7.674A.711.711,0,0,1,7.725,973.567Zm13.545,0a.7.7,0,0,1,.033.191v7.674a.7.7,0,0,1-.038.212L17,977.78Zm-4.764,4.7,4.241,3.843a.719.719,0,0,1-.142.016H8.4a.719.719,0,0,1-.142-.016l4.235-3.837,1.008.992a1.425,1.425,0,0,0,1.995,0Z" transform="translate(-7 -972.362)" fill="#f60" stroke="#f60" stroke-width="0.5"/>
  </g>
</svg>
