<svg id="mobile" xmlns="http://www.w3.org/2000/svg" width="9.474" height="16.08" viewBox="0 0 9.474 16.08">
  <path id="Path_4002" data-name="Path 4002" d="M668.829,371.914l0-.017a2.3,2.3,0,0,0-.751-1.128l-.02-.018a2.307,2.307,0,0,0-.545-.325c-.02-.008-.035-.024-.054-.032l-.056-.005a2.238,2.238,0,0,0-.706-.142h-5a2.238,2.238,0,0,0-.706.142l-.056.005c-.02.008-.034.024-.054.032a2.306,2.306,0,0,0-.545.325l-.02.018a2.29,2.29,0,0,0-.751,1.128l-.005.017a2.278,2.278,0,0,0-.1.688v.006h0v11.363a2.3,2.3,0,0,0,2.236,2.355h5a2.3,2.3,0,0,0,2.236-2.355V372.608h0V372.6A2.276,2.276,0,0,0,668.829,371.914Zm-1.054,12.048a1.115,1.115,0,0,1-1.084,1.137h-5a1.116,1.116,0,0,1-1.084-1.137V372.614a1.113,1.113,0,0,1,1.091-1.139h4.985a1.111,1.111,0,0,1,1.09,1.139Z" transform="translate(-659.455 -370.246)" fill="#f60"/>
  <rect id="Rectangle_205" data-name="Rectangle 205" width="2.084" height="0.574" rx="0.287" transform="translate(3.695 13.704)" fill="#f60"/>
</svg>
