<svg id="mobile-disable" xmlns="http://www.w3.org/2000/svg" width="8.249" height="14" viewBox="0 0 8.249 14">
  <path id="Path_4002" data-name="Path 4002" d="M667.616,371.7l0-.015a2,2,0,0,0-.654-.982l-.017-.016a2.01,2.01,0,0,0-.475-.283c-.017-.007-.03-.021-.047-.028l-.049,0a1.949,1.949,0,0,0-.615-.124H661.4a1.949,1.949,0,0,0-.615.124l-.049,0c-.017.007-.03.021-.047.028a2.008,2.008,0,0,0-.474.283l-.017.016a1.994,1.994,0,0,0-.654.982l0,.015a1.983,1.983,0,0,0-.086.6v.005h0V382.2a2,2,0,0,0,1.947,2.05h4.354a2,2,0,0,0,1.947-2.05V372.3h0V372.3A1.981,1.981,0,0,0,667.616,371.7Zm-.918,10.49a.971.971,0,0,1-.944.99H661.4a.972.972,0,0,1-.944-.99v-9.88a.969.969,0,0,1,.95-.992h4.34a.968.968,0,0,1,.949.992Z" transform="translate(-659.455 -370.246)" fill="#696969"/>
  <rect id="Rectangle_205" data-name="Rectangle 205" width="1.814" height="0.5" rx="0.25" transform="translate(3.217 11.932)" fill="#696969"/>
</svg>
