<svg xmlns="http://www.w3.org/2000/svg" width="16.323" height="16.974" viewBox="0 0 16.323 16.974">
  <g id="pass" transform="translate(0.156 0.25)">
    <g id="Group_539" data-name="Group 539" transform="translate(0 0)">
      <path id="Path_4154" data-name="Path 4154" d="M17.936,6.266q-.084-.119-.179-.23c-.046-.054-.091-.107-.14-.157a4.5,4.5,0,0,0-.508-.465l.044-.063a2.707,2.707,0,0,0-4.212-3.37l-.508.553a4.151,4.151,0,0,0-5.3,4.737L3.22,10.2a.654.654,0,0,0-.257.435l-.247,1.717a.584.584,0,0,0,.494.66l1.813.261h.061a.422.422,0,0,0,.254-.085l.55-.411a.423.423,0,0,0,.169-.276l.129-.846.484.069a.787.787,0,0,0,.89-.667l.069-.486.846.11a.419.419,0,0,0,.31-.081l.535-.4a3.917,3.917,0,0,0,1.538.433h.024c.049.09.1.179.156.267L8.475,15.059a.654.654,0,0,0-.08.5l.4,1.692a.582.582,0,0,0,.7.432h0l1.783-.426a.423.423,0,0,0,.262-.189l.36-.585a.423.423,0,0,0,.052-.316l-.195-.841.469-.113a.787.787,0,0,0,.582-.947l-.113-.479.829-.21a.423.423,0,0,0,.257-.189l.348-.57a4.167,4.167,0,0,0,4.414-3.03A4.074,4.074,0,0,0,17.936,6.266ZM13.561,2.554A1.861,1.861,0,0,1,16.451,4.87l-.063.09a4.114,4.114,0,0,0-1.523-.423,4.218,4.218,0,0,0-1.617-1.649ZM10.5,9.644q.011.049.024.1A3.3,3.3,0,0,1,9.5,9.333h0a.423.423,0,0,0-.472.024l-.616.464-.981-.129a.529.529,0,0,0-.6.448l-.107.738-.738-.107a.528.528,0,0,0-.6.445l-.149.986-.271.2-1.382-.2.2-1.38,4.06-3.045A.423.423,0,0,0,8,7.34,3.307,3.307,0,0,1,13.9,4.578c-.108.017-.217.037-.325.063A4.153,4.153,0,0,0,10.5,9.644Zm7.243-.1A3.321,3.321,0,0,1,14,11.94a.421.421,0,0,0-.43.2l-.4.661-.963.242a.528.528,0,0,0-.387.636l.169.724-.724.169a.528.528,0,0,0-.392.634l.225.973-.169.288-1.353.325-.325-1.353L11.9,11.111a.423.423,0,0,0-.019-.472A3.306,3.306,0,0,1,15.9,5.669a4.479,4.479,0,0,1,.722.457c.121.121.26.224.377.348q.058.061.11.123t.142.181a3.214,3.214,0,0,1,.484,2.768Z" transform="translate(-2.71 -1.136)" fill="#f60" stroke="#f60" stroke-linecap="round" stroke-linejoin="round" stroke-width="0.3"/>
    </g>
    <path id="Path_4155" data-name="Path 4155" d="M70.466,33.478c-.012-.034-.027-.067-.042-.1l0-.009a1.262,1.262,0,0,0-.249-.361A1.278,1.278,0,0,0,68,33.757l.006.026a1.277,1.277,0,0,0,1.266,1.423,1.294,1.294,0,0,0,.3-.036,1.27,1.27,0,0,0,.9-1.692Zm-1.1.862a.433.433,0,0,1-.328-.053.432.432,0,0,1-.14-.592.433.433,0,0,1,.269-.195.555.555,0,0,1,.1-.014.433.433,0,0,1,.1.853Z" transform="translate(-56.952 -27.304)" fill="#f60"/>
  </g>
</svg>
