<svg xmlns="http://www.w3.org/2000/svg" width="16.461" height="10.8" viewBox="0 0 16.461 10.8">
  <path id="show" d="M2.841,10.2l.014.027c.061.122.156.3.287.514a8.568,8.568,0,0,0,1.242,1.576A7.7,7.7,0,0,0,10,14.6a7.7,7.7,0,0,0,5.617-2.283,8.567,8.567,0,0,0,1.242-1.576c.131-.214.226-.392.287-.514l.014-.027-.014-.027c-.061-.122-.156-.3-.287-.514a8.569,8.569,0,0,0-1.242-1.576A7.7,7.7,0,0,0,10,5.8,7.7,7.7,0,0,0,4.383,8.083,8.57,8.57,0,0,0,3.141,9.659c-.131.214-.226.392-.287.514Zm14.759,0,.369-.154v0l0,0-.006-.013L17.94,9.98c-.018-.039-.044-.1-.079-.165-.07-.14-.176-.338-.32-.573a9.367,9.367,0,0,0-1.358-1.724A8.5,8.5,0,0,0,10,5,8.5,8.5,0,0,0,3.817,7.517,9.367,9.367,0,0,0,2.459,9.241c-.144.236-.249.433-.32.573-.035.07-.061.126-.079.165l-.021.046-.006.013,0,0h0s0,0,.369.155l-.369-.154a.4.4,0,0,0,0,.308L2.4,10.2l-.369.154h0l0,0,.006.013.021.046c.018.039.044.1.079.165.07.14.176.338.32.573a9.368,9.368,0,0,0,1.358,1.724A8.5,8.5,0,0,0,10,15.4a8.5,8.5,0,0,0,6.183-2.517,9.368,9.368,0,0,0,1.358-1.724c.144-.236.25-.433.32-.573.035-.07.061-.126.079-.165l.021-.046.006-.013,0,0h0S17.969,10.354,17.6,10.2Zm0,0,.369.154a.4.4,0,0,0,0-.308ZM10,8.2a2,2,0,1,0,2,2A2,2,0,0,0,10,8.2Zm-2.8,2A2.8,2.8,0,1,1,10,13,2.8,2.8,0,0,1,7.2,10.2Z" transform="translate(-1.768 -4.8)" fill="#f60" stroke="#f60" stroke-width="0.4" fill-rule="evenodd"/>
</svg>
