<svg xmlns="http://www.w3.org/2000/svg" width="272" height="192" viewBox="0 0 272 192">
  <g id="successsfull" transform="translate(-17013.999 -4836)">
    <g id="Group_1515" data-name="Group 1515" transform="translate(17013.996 4835.999)">
      <path id="Path_4687" data-name="Path 4687" d="M164.926,307.7c.26,16.057,6.262,17.8,13.632,16.121a27.083,27.083,0,0,0,18.736-15.844l2.349-5.472a14.926,14.926,0,0,0-7.828-19.6h0a14.926,14.926,0,0,0-19.6,7.828C164.652,293.7,163.16,299.844,164.926,307.7Z" transform="translate(-152.808 -234.736)" fill="#2f2e41"/>
      <path id="Path_4688" data-name="Path 4688" d="M295.1,236.508l2.262-3.828a3.6,3.6,0,0,0-2.032-5.264h0a3.6,3.6,0,0,0-4.658,3.551l.133,4.115-10.631,29.134,5.8,1.21Z" transform="translate(-235.591 -195.863)" fill="#9f616a"/>
      <path id="Path_4689" data-name="Path 4689" d="M127.794,442.618l-2.784,3.467a3.6,3.6,0,0,0,1.261,5.5h0a3.6,3.6,0,0,0,5.116-2.851l.455-4.092,14.673-27.322-5.566-2.024Z" transform="translate(-124.215 -330.154)" fill="#9f616a"/>
      <path id="Path_4690" data-name="Path 4690" d="M196.912,528.343l.41,4.923.1,1.149,27.251-2.621a6.008,6.008,0,0,0,4.812-8.424L220.693,504.5l-3.036-6.517L204.5,494.949c-10.848,8.3-1.088,17.466,11.192,26.735q.721.547,1.457,1.093Z" transform="translate(-176.13 -387.038)" fill="#2f2e41"/>
      <path id="Path_4691" data-name="Path 4691" d="M160.589,624.817h0a1.958,1.958,0,0,0,1.786-.691l8.914-10.791-.506-5.06-3.039-1.824a2,2,0,0,0-2.885.979l-5.814,14.729a1.958,1.958,0,0,0,1.544,2.657Z" transform="translate(-148.989 -466.465)" fill="#2f2e41"/>
      <path id="Path_4692" data-name="Path 4692" d="M191.6,527.331l.506,6.072,1.422-.137,25.829-2.484a6.008,6.008,0,0,0,4.812-8.424L216.9,506.08V504.5l-3.036-6.517-13.155-3.036c-10.848,8.3-1.088,17.466,11.192,26.735l-.061.081Z" transform="translate(-172.338 -387.038)" opacity="0.2"/>
      <path id="Path_4693" data-name="Path 4693" d="M151.738,617.737h0a1.958,1.958,0,0,0,1.786-.691l8.914-10.791-.506-5.06-3.039-1.824a2,2,0,0,0-2.885.979l-5.814,14.729a1.958,1.958,0,0,0,1.544,2.657Z" transform="translate(-142.668 -461.409)" fill="#2f2e41"/>
      <path id="Path_4694" data-name="Path 4694" d="M188.062,521.262l.506,6.071,27.251-2.622a6.01,6.01,0,0,0,4.814-8.423l-7.273-16.277V490.9l-17.709-3.036c-11.275,8.629-.289,18.188,12.649,27.828Z" transform="translate(-169.809 -381.982)" fill="#2f2e41"/>
      <circle id="Ellipse_80" data-name="Ellipse 80" cx="7.589" cy="7.589" r="7.589" transform="translate(27.866 52.761)" fill="#9f616a"/>
      <path id="Path_4695" data-name="Path 4695" d="M212.843,352.59l10.625,7.083,9.107-2.024-5.06-5.06V345l-8.1-.506C219.25,347.525,217.514,350.3,212.843,352.59Z" transform="translate(-187.507 -279.59)" fill="#9f616a"/>
      <path id="Path_4696" data-name="Path 4696" d="M206.46,404.44l19.733,2.53,4.554-21.25c2.115-5.641.9-10.624-3.015-15.075a3.38,3.38,0,0,0-3.212-2.715l-1.869.081c.211,6.71-4.733,5.094-12.143-.506l-.895.268a5.026,5.026,0,0,0-3.528,5.551l.816,5.508a37.686,37.686,0,0,0,1.606,6.422C210.53,391.3,209.807,397.7,206.46,404.44Z" transform="translate(-182.642 -296.023)" fill="#f60"/>
      <path id="Path_4697" data-name="Path 4697" d="M175.672,385.331l9.107,3.036,4.048-14.673-1.371-.623a4.918,4.918,0,0,0-6.37,2.155Z" transform="translate(-160.961 -299.683)" fill="#f60"/>
      <path id="Path_4698" data-name="Path 4698" d="M145.27,231.613l5.06,5.565,6.071-9.613-7.59-4.048Z" transform="translate(-103.743 -159.626)" fill="#f60"/>
      <path id="Path_4699" data-name="Path 4699" d="M217.268,305.429c4.769,1.8,9.859,1.612,15.179,0v-6.072H217.268Z" transform="translate(-190.667 -247.356)" fill="#2f2e41"/>
      <path id="Path_4700" data-name="Path 4700" d="M741.39,405.467l-5.232,2.18-34.881-47.526-25.289,48.4-6.54-1.308L688.632,340.5h22.237Z" transform="translate(-478.086 -243.169)" fill="#2f2e41"/>
      <path id="Path_4701" data-name="Path 4701" d="M1035.191,695.213h0a2.28,2.28,0,0,1-1.738-.224l-11.034-6.353a2.239,2.239,0,0,1-.466-3.524l.986-.986,5.232-.436,8,7.679a2.28,2.28,0,0,1-.979,3.844Z" transform="translate(-764.868 -521.828)" fill="#2f2e41"/>
      <path id="Path_4702" data-name="Path 4702" d="M766.432,701.314h0a2.279,2.279,0,0,0,1.737-.224l11.034-6.353a2.239,2.239,0,0,0,.466-3.524l-.986-.986-5.232-.436-8,7.679a2.28,2.28,0,0,0,.979,3.844Z" transform="translate(-581.655 -526.186)" fill="#2f2e41"/>
      <path id="Path_4703" data-name="Path 4703" d="M790.957,187.757l-2.18,1.308-4.518-7.341a3.3,3.3,0,0,1,2.132-4.961h0a3.3,3.3,0,0,1,3.973,2.987Z" transform="translate(-595.237 -159.753)" fill="#ffb9b9"/>
      <path id="Path_4704" data-name="Path 4704" d="M1020.188,409.424l.9-2.376,8.09,2.976a3.3,3.3,0,0,1,1.393,5.217h0a3.3,3.3,0,0,1-4.969.109Z" transform="translate(-764.076 -324.263)" fill="#ffb9b9"/>
      <circle id="Ellipse_81" data-name="Ellipse 81" cx="6.54" cy="6.54" r="6.54" transform="translate(215.342 41.085)" fill="#ffb9b9"/>
      <path id="Path_4705" data-name="Path 4705" d="M773.176,188.186h-9.157V178.158l7.849-.872Z" transform="translate(-545.625 -126.609)" fill="#ffb9b9"/>
      <path id="Path_4706" data-name="Path 4706" d="M881.055,354.837H856.2c.876-13.867,1.57-27.268,0-34.881l1.445-6.937a3.908,3.908,0,0,1,4.311-3.081l3.4.425c2.3,4.049,5.086,4.01,8.284.436h4.1a4.106,4.106,0,0,1,4.106,4.188h0a51.875,51.875,0,0,1,1.054,14.887Z" transform="translate(-646.964 -254.89)" fill="#3f3d56"/>
      <path id="Path_4707" data-name="Path 4707" d="M672.5,93.61l3.488-1.744,18.749,30.957-5.232,7.848Z" transform="translate(-480.265 -65.606)" fill="#3f3d56"/>
      <path id="Path_4708" data-name="Path 4708" d="M952.1,343.265l2.981-2.515-15.84-22.2a14.038,14.038,0,0,0-13.962-5.653l-.5.092,5.989,10.481,7.889,5.973Z" transform="translate(-695.943 -256.864)" fill="#3f3d56"/>
      <path id="Path_4709" data-name="Path 4709" d="M889.647,254.584s1.222-2.689-1.955-3.911c0,0-2.689-4.4-8.066-1.467a6.056,6.056,0,0,0-3.666,5.377c0,3.911-1.222,4.644-1.222,4.644a11.794,11.794,0,0,0,2.309-3.334c.489-1.467,4.291-1.8,5.757-.333s5.133,1.222,5.133,1.222l-.244,5.377s1.222-3.178,1.711-3.178S890.381,254.584,889.647,254.584Z" transform="translate(-660.202 -210.82)" fill="#2f2e41"/>
      <ellipse id="Ellipse_82" data-name="Ellipse 82" cx="40.018" cy="2.084" rx="40.018" ry="2.084" transform="translate(188.823 187.832)" fill="#e6e6e6"/>
      <ellipse id="Ellipse_83" data-name="Ellipse 83" cx="21.153" cy="1.102" rx="21.153" ry="1.102" transform="translate(7.883 188.815)" fill="#e6e6e6"/>
      <path id="Path_4710" data-name="Path 4710" d="M456.245,154.107,327.652,165.632a2.394,2.394,0,0,1-2.595-2.168l-2.859-31.9a2.394,2.394,0,0,1,2.168-2.595l128.593-11.525a2.394,2.394,0,0,1,2.595,2.168l2.859,31.9A2.394,2.394,0,0,1,456.245,154.107Z" transform="translate(-265.596 -117.436)" fill="#f60"/>
      <circle id="Ellipse_84" data-name="Ellipse 84" cx="10.042" cy="10.042" r="10.042" transform="translate(67.04 18.33)" fill="#fff"/>
      <path id="Path_4711" data-name="Path 4711" d="M468.78,168.507a1.674,1.674,0,0,0,.3,3.334l78.584-7.043a1.674,1.674,0,0,0-.3-3.334Z" transform="translate(-369.197 -148.874)" fill="#fff"/>
      <path id="Path_4712" data-name="Path 4712" d="M471.916,203.5a1.674,1.674,0,1,0,.3,3.334l78.584-7.043a1.674,1.674,0,1,0-.3-3.334Z" transform="translate(-371.436 -173.862)" fill="#fff"/>
    </g>
    <g id="Group_1516" data-name="Group 1516" transform="translate(17079.863 4856.286) rotate(-7)">
      <path id="Path_3821" data-name="Path 3821" d="M540.519,440.61a9.944,9.944,0,1,1,9.944-9.944A9.944,9.944,0,0,1,540.519,440.61Zm0-19.545a9.6,9.6,0,1,0,9.6,9.6A9.6,9.6,0,0,0,540.519,421.066Z" transform="translate(-530.575 -420.723)" fill="#ff6601" stroke="#ff6601" stroke-width="2"/>
      <path id="Path_3824" data-name="Path 3824" d="M561.874,458.738a1.279,1.279,0,0,1-.77-.256l-.014-.01-2.9-2.219a1.288,1.288,0,0,1,1.566-2.044l1.877,1.439,4.436-5.785a1.287,1.287,0,0,1,1.805-.238l-.028.037.028-.037a1.289,1.289,0,0,1,.238,1.805l-5.218,6.8A1.288,1.288,0,0,1,561.874,458.738Z" transform="translate(-553.04 -444.449)" fill="#26aa4a"/>
    </g>
  </g>
</svg>
