<svg xmlns="http://www.w3.org/2000/svg" width="16.5" height="16.5" viewBox="0 0 16.5 16.5">
  <path id="user" d="M13,21a8,8,0,1,1,8-8A7.977,7.977,0,0,1,13,21Zm3.236-2.327A3.609,3.609,0,0,0,13,16.636a3.706,3.706,0,0,0-3.273,2.036A6.561,6.561,0,0,0,13,19.545,6.425,6.425,0,0,0,16.236,18.673ZM13,14.455a2.182,2.182,0,1,0-2.182-2.182A2.188,2.188,0,0,0,13,14.455Zm0-8A6.565,6.565,0,0,0,6.455,13a6.482,6.482,0,0,0,2.109,4.8,5.134,5.134,0,0,1,2.764-2.327,3.636,3.636,0,1,1,3.345,0A5.11,5.11,0,0,1,17.436,17.8,6.537,6.537,0,0,0,13,6.455Z" transform="translate(-4.75 -4.75)" fill="#f60" stroke="#fff" stroke-width="0.5" fill-rule="evenodd"/>
</svg>
