<svg xmlns="http://www.w3.org/2000/svg" width="14.099" height="16.837" viewBox="0 0 14.099 16.837">
  <path id="user-name" d="M161.566,20.213l-.764-1.048a7.046,7.046,0,0,0-3.074-2.073c.044-.022.082-.052.125-.076h-.017a5.02,5.02,0,1,0-4.717-.027c.05.032.1.065.152.092a7.06,7.06,0,0,0-3.084,2.08l-.743,1.049a7.132,7.132,0,0,0-.976,3.607v.021a.531.531,0,0,0,.492.567l13.077.008a.529.529,0,0,0,.529-.529h0A7.508,7.508,0,0,0,161.566,20.213ZM151.547,12.6a3.956,3.956,0,1,1,3.956,3.957A3.956,3.956,0,0,1,151.547,12.6Zm-2.015,10.759a6.143,6.143,0,0,1,1.734-3.815,5.977,5.977,0,0,1,3.873-1.742l-.005,0c.124-.008.247-.011.369-.011a5.98,5.98,0,0,1,5.959,5.57Z" transform="translate(-148.467 -7.576)" fill="#f60"/>
</svg>
