<svg xmlns="http://www.w3.org/2000/svg" width="34.167" height="31.23" viewBox="0 0 34.167 31.23">
  <path id="warning-dialog" d="M8.62,37.83H30.6a6.089,6.089,0,0,0,5.289-3.058,5.943,5.943,0,0,0,0-6.081L24.883,9.658a6.041,6.041,0,0,0-10.506,0L3.367,28.728A6.094,6.094,0,0,0,3.4,34.844,5.939,5.939,0,0,0,8.62,37.83ZM5.742,30.095l11.01-19.069A3.265,3.265,0,0,1,19.63,9.37a3.227,3.227,0,0,1,2.878,1.691l11.01,19.069a3.3,3.3,0,0,1,0,3.31A3.356,3.356,0,0,1,30.6,35.132H8.62a3.307,3.307,0,0,1-2.878-1.655A3.527,3.527,0,0,1,5.742,30.095Zm15.615.252a1.745,1.745,0,1,1-1.727-1.8A1.722,1.722,0,0,1,21.357,30.347ZM17.975,19.8c-.036-.576-.072-1.115-.108-1.691a1.874,1.874,0,0,1,1.367-1.907,1.775,1.775,0,0,1,2.051,1.007,2.419,2.419,0,0,1,.144.864c-.036.864-.108,1.763-.144,2.627-.072,1.367-.144,2.7-.252,4.066C21,25.2,21,25.6,21,26.029a1.335,1.335,0,0,1-2.662.036C18.191,24.014,18.083,21.927,17.975,19.8Z" transform="translate(-2.562 -6.6)" fill="#f5ac09"/>
</svg>
