<svg xmlns="http://www.w3.org/2000/svg" width="12.492" height="12.5" viewBox="0 0 12.492 12.5">
  <path id="weak-pass" d="M193.411,8.252a3.614,3.614,0,0,1,3.987,0,3.725,3.725,0,0,1,1,3,.3.3,0,1,1-.6,0,3.172,3.172,0,0,0-.795-2.545,3.068,3.068,0,0,0-3.208,0,3.172,3.172,0,0,0-.794,2.545v.9h1.5a.3.3,0,0,1,.3.3v6.9a.3.3,0,0,1-.3.3h-7.8a.3.3,0,0,1-.3-.3v-6.9a.3.3,0,0,1,.3-.3h5.7v-.9A3.725,3.725,0,0,1,193.411,8.252Zm-6.4,4.5v6.3h7.2v-6.3Z" transform="translate(-186.16 -7.395)" fill="#fff" stroke="#fff" stroke-width="0.5" fill-rule="evenodd"/>
</svg>
