<svg xmlns="http://www.w3.org/2000/svg" width="17" height="17" viewBox="0 0 17 17">
  <path id="add" d="M13954.24-15585.717v-5.49h-5.448a1.278,1.278,0,0,1-1.273-1.262v-.02a1.268,1.268,0,0,1,.37-.9,1.25,1.25,0,0,1,.787-.378l5.564,0v-5.445a1.282,1.282,0,0,1,1.245-1.277h.032a1.281,1.281,0,0,1,1.277,1.277v5.445h5.446a1.28,1.28,0,0,1,1.277,1.277,1.267,1.267,0,0,1-.377.9l0,0a1.24,1.24,0,0,1-.9.374l-5.446,0v5.446a1.278,1.278,0,0,1-1.277,1.276A1.277,1.277,0,0,1,13954.24-15585.717Z" transform="translate(-13947.019 15600.984)" fill="#ff6601" stroke="rgba(0,0,0,0)" stroke-miterlimit="10" stroke-width="1"/>
</svg>
