<svg id="disable-context" xmlns="http://www.w3.org/2000/svg" width="18.378" height="11.171" viewBox="0 0 18.378 11.171">
  <rect id="Switch_background" data-name="Switch background" width="18.378" height="11.171" transform="translate(0 0)" fill="rgba(0,0,0,0)"/>
  <g id="Mask" transform="translate(0 0)" fill="none" stroke-miterlimit="10">
    <path d="M5.714.033C6.341,0,6.967,0,7.594,0h3.177c.639,0,1.266,0,1.892.033a7.8,7.8,0,0,1,1.677.256,5.493,5.493,0,0,1,0,10.592,7.822,7.822,0,0,1-1.677.256c-.627.036-1.253.033-1.88.033H7.606c-.639,0-1.265,0-1.892-.033a7.822,7.822,0,0,1-1.677-.256,5.493,5.493,0,0,1,0-10.592A7.8,7.8,0,0,1,5.714.033Z" stroke="none"/>
    <path d="M 7.335184097290039 1.000003814697266 C 6.80052375793457 1.000003814697266 6.278603553771973 1.002413749694824 5.770963668823242 1.031583786010742 C 5.192784309387207 1.06451416015625 4.727563858032227 1.13469409942627 4.306573867797852 1.252493858337402 C 3.343143463134766 1.521794319152832 2.51793384552002 2.078444480895996 1.920022964477539 2.862443923950195 C 1.326744079589844 3.640014171600342 1.000003814697266 4.607084274291992 1.000003814697266 5.585504055023193 C 1.000003814697266 6.563913822174072 1.326744079589844 7.530983924865723 1.920053482055664 8.30859375 C 2.518194198608398 9.092594146728516 3.34343433380127 9.649293899536133 4.306863784790039 9.918594360351562 C 4.725863456726074 10.03584384918213 5.191304206848145 10.10602378845215 5.771464347839355 10.13945388793945 C 6.317214012145996 10.17081451416016 6.865253448486328 10.17086410522461 7.445464134216309 10.17091369628906 L 7.605834007263184 10.17095375061035 L 10.78388404846191 10.17059421539307 L 11.0705738067627 10.17067432403564 C 11.5938138961792 10.17067432403564 12.10500335693359 10.16828441619873 12.60635375976562 10.13945388793945 C 13.18685340881348 10.10603427886963 13.65238380432129 10.03585433959961 14.07171440124512 9.918514251708984 C 15.0348539352417 9.649293899536133 15.86009407043457 9.092594146728516 16.4582633972168 8.308564186096191 C 17.05131340026855 7.531284332275391 17.3779239654541 6.564094066619873 17.3779239654541 5.58514404296875 C 17.3779239654541 4.606654167175293 17.05131340026855 3.639714241027832 16.4581241607666 2.862263679504395 C 15.86035346984863 2.078444480895996 15.03514385223389 1.521794319152832 14.07142448425293 1.252413749694824 C 13.65069389343262 1.134683609008789 13.18536376953125 1.06451416015625 12.60644340515137 1.031554222106934 C 12.0988941192627 1.002373695373535 11.59459400177002 1.000003814697266 11.03525352478027 1.000003814697266 L 7.594413757324219 1.000054359436035 L 7.335184097290039 1.000003814697266 M 7.33518123626709 -9.5367431640625e-07 C 7.421609878540039 -9.5367431640625e-07 7.507961273193359 5.435943603515625e-05 7.594413757324219 5.435943603515625e-05 C 7.598733901977539 5.435943603515625e-05 10.7716236114502 5.435943603515625e-05 10.7716236114502 5.435943603515625e-05 C 11.41089248657227 5.14984130859375e-05 12.03718376159668 -0.002825736999511719 12.66383361816406 0.03320407867431641 C 13.23355388641357 0.06563377380371094 13.78849411010742 0.1348237991333008 14.34091377258301 0.2894144058227539 C 15.50376415252686 0.6144542694091797 16.51923370361328 1.293354034423828 17.25327301025391 2.255853652954102 C 17.98298454284668 3.212224006652832 18.3779239654541 4.38301420211792 18.3779239654541 5.58514404296875 C 18.3779239654541 6.788713932037354 17.98298454284668 7.958774089813232 17.25327301025391 8.915153503417969 C 16.51923370361328 9.877284049987793 15.50376415252686 10.55655384063721 14.34091377258301 10.88159370422363 C 13.78849411010742 11.03618431091309 13.23355388641357 11.10500431060791 12.66383361816406 11.13780403137207 C 12.03718376159668 11.1738338470459 11.41089057922363 11.17059421539307 10.78388404846191 11.17059421539307 C 10.77955436706543 11.17059421539307 7.60594367980957 11.17095375061035 7.60594367980957 11.17095375061035 C 6.96739387512207 11.17059421539307 6.341103553771973 11.1738338470459 5.714094161987305 11.13780403137207 C 5.144743919372559 11.10500431060791 4.589794158935547 11.03618431091309 4.037373542785645 10.88159370422363 C 2.874524116516113 10.55655384063721 1.859054565429688 9.877284049987793 1.12501335144043 8.915153503417969 C 0.3953037261962891 7.958774089813232 3.814697265625e-06 6.788713932037354 3.814697265625e-06 5.585504055023193 C 3.814697265625e-06 4.38301420211792 0.3953037261962891 3.212224006652832 1.12501335144043 2.255853652954102 C 1.859054565429688 1.293354034423828 2.874524116516113 0.6144542694091797 4.037373542785645 0.2894144058227539 C 4.589794158935547 0.1348237991333008 5.144743919372559 0.06563377380371094 5.714094161987305 0.03320407867431641 C 6.254652976989746 0.002141952514648438 6.794763565063477 -9.5367431640625e-07 7.33518123626709 -9.5367431640625e-07 Z" stroke="none" fill="#ff6f0f"/>
  </g>
  <g id="Group_1262" data-name="Group 1262" transform="translate(0 0)">
    <path id="knob" d="M3.208,0A3.208,3.208,0,1,1,0,3.208,3.208,3.208,0,0,1,3.208,0Z" transform="translate(9.585 2.378)" fill="#ff6f0f"/>
  </g>
</svg>
