<svg xmlns="http://www.w3.org/2000/svg" width="18.322" height="17.425" viewBox="0 0 18.322 17.425">
  <g id="done" transform="translate(0.16 0.15)">
    <g id="Group_445" data-name="Group 445">
      <path id="Path_4132" data-name="Path 4132" d="M13.838,29.112A.628.628,0,0,0,14.2,29l4.843-3.443,4.795,3.438a.628.628,0,0,0,.963-.705l-1.823-5.576,4.788-3.464a.628.628,0,0,0-.367-1.137L21.471,18.1l-1.852-5.664a.628.628,0,0,0-1.194,0l-1.849,5.654-5.923-.012h0a.628.628,0,0,0-.368,1.136l4.791,3.469-1.834,5.609a.628.628,0,0,0,.6.823Zm5.207-4.563a.45.45,0,0,0-.261.083l-4.43,3.15,1.679-5.134a.45.45,0,0,0-.164-.5L11.5,18.977l5.405.011h0a.451.451,0,0,0,.428-.31l1.691-5.172,1.694,5.181a.45.45,0,0,0,.427.31l5.415.011-4.374,3.164a.45.45,0,0,0-.164.5l1.666,5.1-4.379-3.14A.449.449,0,0,0,19.046,24.549Z" transform="translate(-10.025 -12)" fill="#ff6601" stroke="#ff6601" stroke-width="0.3"/>
    </g>
  </g>
</svg>
