<svg xmlns="http://www.w3.org/2000/svg" width="14.157" height="16" viewBox="0 0 14.157 16">
  <g id="edit-context" transform="translate(-42.9 -15.325)">
    <path id="Path_31" data-name="Path 31" d="M63.628,28.239l-4.391-1.2a.576.576,0,0,1-.249-.146l-7.079-7.079a1.71,1.71,0,0,1,0-2.418l1.568-1.568a1.71,1.71,0,0,1,2.418,0L62.973,22.9a.577.577,0,0,1,.146.249l1.2,4.395a.566.566,0,0,1-.545.714A.777.777,0,0,1,63.628,28.239ZM61.767,23.3,56.9,18.43l-2.388,2.388,4.87,4.87Zm-6.673-6.677a.581.581,0,0,0-.82,0l-1.568,1.568a.581.581,0,0,0,0,.82l1.006,1.006L56.1,17.629Zm7.188,7.76-1.82,1.82,2.508.688Z" transform="translate(-7.567 0)" fill="#ff6f0f"/>
    <path id="Path_32" data-name="Path 32" d="M43.465,463H56.493a.565.565,0,1,1,0,1.129H43.465a.565.565,0,1,1,0-1.129Z" transform="translate(0 -432.804)" fill="#ff6f0f"/>
  </g>
</svg>
