<svg id="enable-context" xmlns="http://www.w3.org/2000/svg" width="18.379" height="11.172" viewBox="0 0 18.379 11.172">
  <rect id="Switch_background" data-name="Switch background" width="18.379" height="11.171" transform="translate(0 0)" fill="rgba(0,0,0,0)"/>
  <g id="Mask" transform="translate(0 0)" fill="none" stroke-miterlimit="10">
    <path d="M12.665.033C12.037,0,11.411,0,10.784,0H7.607C6.967,0,6.341,0,5.714.033A7.8,7.8,0,0,0,4.037.289a5.493,5.493,0,0,0,0,10.593,7.823,7.823,0,0,0,1.677.256c.627.036,1.253.033,1.88.033h3.178c.639,0,1.265,0,1.892-.033a7.823,7.823,0,0,0,1.677-.256,5.493,5.493,0,0,0,0-10.593A7.8,7.8,0,0,0,12.665.033Z" stroke="none"/>
    <path d="M 7.343122482299805 1 C 6.783641815185547 1 6.279232025146484 1.00236988067627 5.771222114562988 1.031590461730957 C 5.192822456359863 1.064519882202148 4.727472305297852 1.134690284729004 4.306431770324707 1.252510070800781 C 3.342931747436523 1.521830558776855 2.517672538757324 2.078519821166992 1.919721603393555 2.862560272216797 C 1.326631546020508 3.639880180358887 1.000001907348633 4.606890201568604 1.000001907348633 5.585440158843994 C 1.000001907348633 6.564460277557373 1.326631546020508 7.531710147857666 1.91975212097168 8.309060096740723 C 2.517922401428223 9.093110084533691 3.343222618103027 9.649849891662598 4.306702613830566 9.919159889221191 C 4.725852012634277 10.03645038604736 5.191411972045898 10.10663986206055 5.771801948547363 10.14004039764404 C 6.273201942443848 10.168869972229 6.784122467041016 10.17125988006592 7.307062149047852 10.17125988006592 L 7.594451904296875 10.17117977142334 L 10.77200222015381 10.17154026031494 L 10.93338203430176 10.17150020599365 C 11.51350212097168 10.17144966125488 12.06145286560059 10.17140007019043 12.60701179504395 10.14004039764404 C 13.1872615814209 10.10663032531738 13.65272235870361 10.03643989562988 14.07211208343506 9.919090270996094 C 15.03532218933105 9.649849891662598 15.86062240600586 9.093110084533691 16.45881271362305 8.309020042419434 C 17.05214309692383 7.531410217285156 17.37890243530273 6.564280033111572 17.37890243530273 5.585800170898438 C 17.37890243530273 4.607320308685303 17.05214309692383 3.640190124511719 16.45867156982422 2.862380027770996 C 15.86087226867676 2.078510284423828 15.03561210632324 1.521830558776855 14.07182216644287 1.252429962158203 C 13.65110206604004 1.134699821472168 13.18585205078125 1.064519882202148 12.60712242126465 1.031559944152832 C 12.09993171691895 1.002409934997559 11.57798194885254 1 11.04327201843262 1 L 7.606701850891113 1.00005054473877 L 7.343122482299805 1 M 7.343121528625488 -4.76837158203125e-06 C 7.430731773376465 -4.76837158203125e-06 7.518634796142578 5.054473876953125e-05 7.606701850891113 5.054473876953125e-05 C 7.606701850891113 5.054473876953125e-05 10.77977180480957 5.054473876953125e-05 10.78409194946289 5.054473876953125e-05 C 11.41114616394043 5.245208740234375e-05 12.03746223449707 -0.002829551696777344 12.66450214385986 0.03320980072021484 C 13.2338924407959 0.06564044952392578 13.78886222839355 0.1348304748535156 14.34131240844727 0.2894306182861328 C 15.50423240661621 0.6144905090332031 16.51975250244141 1.29341983795166 17.25382232666016 2.255970001220703 C 17.98358154296875 3.212399959564209 18.37890243530273 4.383240222930908 18.37890243530273 5.585800170898438 C 18.37890243530273 6.789080142974854 17.98358154296875 7.959199905395508 17.25382232666016 8.915619850158691 C 16.51975250244141 9.877810478210449 15.50423240661621 10.55710983276367 14.34131240844727 10.88216972351074 C 13.78886222839355 11.0367603302002 13.2338924407959 11.10560035705566 12.66450214385986 11.13839054107666 C 12.03746223449707 11.17442989349365 11.41114234924316 11.17117977142334 10.77256202697754 11.17154026031494 C 10.77256202697754 11.17154026031494 7.598772048950195 11.17117977142334 7.594451904296875 11.17117977142334 C 6.967397689819336 11.17117977142334 6.341081619262695 11.17442989349365 5.714391708374023 11.13839054107666 C 5.144652366638184 11.10560035705566 4.589682579040527 11.0367603302002 4.037232398986816 10.88216972351074 C 2.874321937561035 10.55710983276367 1.858791351318359 9.877810478210449 1.124711990356445 8.915619850158691 C 0.3949623107910156 7.959199905395508 1.9073486328125e-06 6.789080142974854 1.9073486328125e-06 5.585440158843994 C 1.9073486328125e-06 4.383240222930908 0.3949623107910156 3.212399959564209 1.124711990356445 2.255970001220703 C 1.858791351318359 1.29341983795166 2.874321937561035 0.6144905090332031 4.037232398986816 0.2894306182861328 C 4.589682579040527 0.1348304748535156 5.144652366638184 0.06564044952392578 5.714391708374023 0.03320980072021484 C 6.254751205444336 0.002135276794433594 6.794754981994629 -4.76837158203125e-06 7.343121528625488 -4.76837158203125e-06 Z" stroke="none" fill="#ff6f0f"/>
  </g>
  <g id="Group_1262" data-name="Group 1262" transform="translate(2.378 2.378)">
    <path id="knob" d="M3.208,0A3.208,3.208,0,1,0,6.415,3.208,3.208,3.208,0,0,0,3.208,0Z" transform="translate(0 0)" fill="#ff6f0f"/>
  </g>
</svg>
