<svg xmlns="http://www.w3.org/2000/svg" width="453" height="243.074" viewBox="0 0 453 243.074">
  <g id="graphic-added" transform="translate(-16778 -11800)">
    <rect id="Rectangle_655" data-name="Rectangle 655" width="352.6" height="1.413" transform="translate(16778.707 11819.817)" fill="#ff6601"/>
    <circle id="Ellipse_85" data-name="Ellipse 85" cx="4.24" cy="4.24" r="4.24" transform="translate(16786.48 11806.363)" fill="#ff6601"/>
    <circle id="Ellipse_86" data-name="Ellipse 86" cx="4.24" cy="4.24" r="4.24" transform="translate(16798.668 11806.363)" fill="#ff6601"/>
    <circle id="Ellipse_87" data-name="Ellipse 87" cx="4.24" cy="4.24" r="4.24" transform="translate(16810.857 11806.363)" fill="#ff6601"/>
    <path id="Union_57" data-name="Union 57" d="M91.74,243.073H4.942A4.947,4.947,0,0,1,0,238.133V4.947q0-.108,0-.216c0-.034,0-.068.005-.1V4.623A4.949,4.949,0,0,1,4.693.007h0l.059,0h.013l.05,0H349.13a4.948,4.948,0,0,1,4.883,4.947V238.133a4.947,4.947,0,0,1-4.941,4.941Zm257.332-1.411a3.533,3.533,0,0,0,3.53-3.53v-90.27h0V4.947a3.539,3.539,0,0,0-3.537-3.537H4.948A3.539,3.539,0,0,0,1.412,4.947V147.862h0v90.27a3.534,3.534,0,0,0,3.531,3.53h344.13Z" transform="translate(16778 11800)" fill="#ff6601"/>
    <g id="Group_1537" data-name="Group 1537" transform="translate(16904.531 11878.313)">
      <path id="Path_4380" data-name="Path 4380" d="M570.167,357.226H370.044a4.535,4.535,0,0,1,0-9.071H570.167a4.535,4.535,0,1,1,0,9.071Z" transform="translate(-365.508 -328.879)" fill="#ccc"/>
      <path id="Path_4381" data-name="Path 4381" d="M570.167,432.214H370.044a4.535,4.535,0,1,1,0-9.071H570.167a4.535,4.535,0,1,1,0,9.071Z" transform="translate(-365.508 -355.113)" fill="#e6e6e6"/>
      <path id="Path_4382" data-name="Path 4382" d="M570.167,460.989H370.044a4.535,4.535,0,0,1,0-9.071H570.167a4.535,4.535,0,1,1,0,9.071Z" transform="translate(-365.508 -365.178)" fill="#e6e6e6"/>
      <path id="Path_4383" data-name="Path 4383" d="M555.108,327.58H420.181a4.535,4.535,0,0,1,0-9.071H555.108a4.535,4.535,0,0,1,0,9.071Z" transform="translate(-383.047 -318.51)" fill="#ccc"/>
      <path id="Path_4384" data-name="Path 4384" d="M440.733,403.44h-70.3a4.535,4.535,0,1,1,0-9.071h70.3a4.535,4.535,0,1,1,0,9.071Z" transform="translate(-365.644 -345.047)" fill="#e6e6e6"/>
      <path id="Path_4385" data-name="Path 4385" d="M640.41,403.44h-70.3a4.535,4.535,0,0,1,0-9.071h70.3a4.535,4.535,0,0,1,0,9.071Z" transform="translate(-435.497 -345.047)" fill="#e6e6e6"/>
    </g>
    <path id="Path_4390" data-name="Path 4390" d="M357.8,159.9a47.737,47.737,0,0,1-3.857,18.862l-.159.366a47.978,47.978,0,0,1-52.195,27.953q-.432-.076-.862-.159a47.475,47.475,0,0,1-8.664-2.555q-.682-.274-1.355-.568c-.306-.133-.612-.271-.915-.412A47.9,47.9,0,1,1,357.8,159.9Z" transform="translate(16533.559 11766.321)" fill="#fff"/>
    <path id="Path_4391" data-name="Path 4391" d="M418.22,392.77q-.431-.076-.862-.159a196.964,196.964,0,0,0-3.019-28.242,104.779,104.779,0,0,0-5.165-18.787,58.479,58.479,0,0,0-2.7-5.929,30.75,30.75,0,0,0-8.582-10.614l.5-.689a29.635,29.635,0,0,1,7.684,8.8q1.022,1.7,1.964,3.619,1.01,2.058,1.926,4.369.585,1.471,1.129,3.044a110.494,110.494,0,0,1,4.033,15.586q.368,1.934.7,3.964A200.975,200.975,0,0,1,418.22,392.77Z" transform="translate(16416.926 11580.632)" fill="#f2f2f2" opacity="0.998"/>
    <path id="Path_4392" data-name="Path 4392" d="M410.489,618.093c-.306-.133-.612-.271-.915-.412a69.569,69.569,0,0,0-1.835-11,36.086,36.086,0,0,0-1.674-4.988,14.969,14.969,0,0,0-4.505-6.309l.5-.687a15.66,15.66,0,0,1,4.711,6.454A44.264,44.264,0,0,1,409.6,611.1C410.037,613.6,410.315,616.026,410.489,618.093Z" transform="translate(16413.775 11352.028)" fill="#f2f2f2" opacity="0.998"/>
    <circle id="Ellipse_88" data-name="Ellipse 88" cx="4.264" cy="4.264" r="4.264" transform="translate(16805.787 11901.123)" fill="#f2f2f2" opacity="0.998"/>
    <circle id="Ellipse_89" data-name="Ellipse 89" cx="4.264" cy="4.264" r="4.264" transform="translate(16807.158 11937.828)" fill="#f2f2f2" opacity="0.998"/>
    <path id="Path_4393" data-name="Path 4393" d="M482.291,300.509a18.941,18.941,0,0,0,1.092,9.72,17.261,17.261,0,0,0,3.274-18.473A18.94,18.94,0,0,0,482.291,300.509Z" transform="translate(16344.687 11612.041)" opacity="0.2"/>
    <path id="Path_4394" data-name="Path 4394" d="M336.082,401.624a19.035,19.035,0,0,0,9.755.637,17.367,17.367,0,0,0-17.62-6.443A19.034,19.034,0,0,0,336.082,401.624Z" transform="translate(16476.727 11523.034)" fill="#f2f2f2" opacity="0.998"/>
    <path id="Path_4395" data-name="Path 4395" d="M344.536,642.028a13.277,13.277,0,0,0,6.842.433,12.1,12.1,0,0,0-12.35-4.516A13.276,13.276,0,0,0,344.536,642.028Z" transform="translate(16467.449 11315.133)" fill="#f2f2f2" opacity="0.998"/>
    <circle id="Ellipse_90" data-name="Ellipse 90" cx="18.674" cy="18.674" r="18.674" transform="translate(16824.689 11899.481)" fill="#ffb8b8"/>
    <path id="Path_4396" data-name="Path 4396" d="M547.833,458.623s2.334,11.087,2.334,12.255,11.087,6.419,11.087,6.419l9.92-1.751,3.5-10.5s-5.836-8.753-5.836-12.255Z" transform="translate(16288.232 11473.829)" fill="#ffb8b8"/>
    <path id="Path_4397" data-name="Path 4397" d="M461.433,526.608l-.159.366a47.978,47.978,0,0,1-52.195,27.953q-.431-.076-.862-.159a47.456,47.456,0,0,1-8.664-2.555q-.682-.274-1.355-.568c-.306-.133-.612-.271-.915-.412a47.855,47.855,0,0,1-7.83-4.575l-2.214-6.421,1.244-.949,2.559-1.954,2.731-2.084.71-.543,10.715-8.18.791-.6,5.569-4.252h0s6.023,9.814,14.776,6.9A12.071,12.071,0,0,0,434.9,517.28Z" transform="translate(16426.066 11418.476)" fill="#ccc"/>
    <path id="Path_4398" data-name="Path 4398" d="M458.437,224.38s5.929-12.846,17.292-9.881,17.786,7.411,18.28,11.858a63.438,63.438,0,0,1-.247,11.117s-1.235-9.14-9.14-7.164-20.257.494-20.257.494l-1.976,17.786s-2.223-3.211-4.694-1.235S450.532,228.332,458.437,224.38Z" transform="translate(16368.729 11678.73)" fill="#2f2e41"/>
    <path id="Path_4399" data-name="Path 4399" d="M385.2,691.246q-.682-.274-1.355-.568c-.306-.133-.612-.271-.915-.412a48.018,48.018,0,0,1-12.413-8.319,16.8,16.8,0,0,1,2.369-2.677h8.754l1.312,4.413Z" transform="translate(16440.42 11279.443)" fill="#ccc"/>
    <path id="Path_4400" data-name="Path 4400" d="M853.434,576.32l7.509,1.326A47.886,47.886,0,0,1,852.9,590.2Z" transform="translate(16026.398 11367.803)" fill="#ccc"/>
    <path id="Path_4387" data-name="Path 4387" d="M655.753,484.519c-.036-.261-.065-.526-.094-.787-.007-.04-.011-.076-.014-.116q-.158-1.432-.229-2.892-.3,1.257-.54,2.526c.011.123.022.243.036.366,0,.04.007.076.015.116.029.261.058.526.094.787.1.809.225,1.607.37,2.4,0-.033.007-.062.011-.094.1-.766.218-1.528.356-2.29A.036.036,0,0,1,655.753,484.519Zm51.2-53.8c-.261-.025-.526-.047-.788-.065-.04,0-.076,0-.116-.007-1.161-.087-2.337-.131-3.52-.131a47.912,47.912,0,0,0-47.654,52.734c.011.123.022.243.036.366,0,.04.007.076.015.116.029.261.058.526.094.787.1.809.225,1.607.37,2.4a48.106,48.106,0,0,0,28.764,35.724c.755.312,1.517.61,2.29.882.508.185,1.016.356,1.531.519.37.12.744.232,1.118.341.53.156,1.067.3,1.607.443a47.664,47.664,0,0,0,39.051-7.032h0a47.883,47.883,0,0,0-22.8-87.079Zm22.486,86.415a46.94,46.94,0,0,1-7.014,4.046A46.431,46.431,0,0,1,717,523.313a47.255,47.255,0,0,1-25.792.9q-.958-.234-1.9-.512t-1.843-.577c-.5-.171-.994-.345-1.488-.53-.515-.2-1.023-.4-1.531-.61a47.293,47.293,0,0,1-28.691-37.443.035.035,0,0,1,0-.018c-.036-.261-.065-.526-.094-.787-.007-.04-.011-.076-.014-.116q-.158-1.432-.229-2.892-.06-1.149-.058-2.311a47.223,47.223,0,0,1,47.172-47.172c1.183,0,2.359.044,3.52.131l.116.011c.261.018.526.04.788.065a47.157,47.157,0,0,1,22.491,85.682Zm-43.46,5.457c-.515-.2-1.023-.4-1.531-.61a47.293,47.293,0,0,1-28.691-37.443c-.138.762-.254,1.524-.356,2.29,0,.033-.007.062-.011.094a48.106,48.106,0,0,0,28.764,35.724c.755.312,1.517.61,2.29.882-.16-.308-.316-.62-.465-.936Zm20.07-91.945c-1.161-.087-2.337-.131-3.52-.131a47.912,47.912,0,0,0-47.654,52.734c.011.123.022.243.036.366,0,.04.007.076.015.116h.733c-.007-.04-.011-.076-.014-.116q-.158-1.432-.229-2.892-.06-1.149-.058-2.311a47.223,47.223,0,0,1,47.172-47.172c1.183,0,2.359.044,3.52.131l.116.011v-.729c-.04,0-.076,0-.116-.007Z" transform="translate(16140.931 11447.8)" fill="#8eca01" stroke="#8eca01" stroke-width="1"/>
    <path id="Path_4942" data-name="Path 4942" d="M891.467,318.367c-6.2,21.51-24.3,36.567-43.19,49.358q-3.955,2.68-7.913,5.236c-.018.008-.036.024-.055.033-.127.082-.254.163-.372.245l-1.629,1.049.3.133s.291.155-.027.025c-.095-.04-.194-.075-.289-.115-10.971-4.425-22.137-9.176-30.545-17.465-8.722-8.608-13.819-22.109-9.1-33.417a21.588,21.588,0,0,1,2.338-4.2c.383-.548.8-1.073,1.225-1.588a23.142,23.142,0,0,1,39.747,7.032c1.387-12.918-9.264-23.739-19.516-31.723S800.533,276.3,798.55,263.457c-1.107-7.148,1.379-14.074,5.906-19.635.14-.169.28-.338.424-.5a33.773,33.773,0,0,1,21.707-11.646c15.725-1.634,31,6.689,42.425,17.623C887.4,266.89,898.516,293.91,891.467,318.367Z" transform="translate(16337.395 11668.576)" fill="#bde06c"/>
    <path id="Path_4943" data-name="Path 4943" d="M864.136,296.576a57.415,57.415,0,0,1,6.878,15.171,49.851,49.851,0,0,1,1.723,14.724,63.872,63.872,0,0,1-8.365,29.068A91.929,91.929,0,0,1,850.5,374.069q-3.955,2.679-7.913,5.236c-.018.008-.036.025-.054.033-.127.082-.254.163-.372.245l-1.629,1.049s.588.288.269.158c-.095-.04-.194-.075-.289-.115a50.367,50.367,0,0,0-37.3-55.078c.383-.548.8-1.073,1.225-1.588a53.14,53.14,0,0,1,8.771,3.319,52.068,52.068,0,0,1,23.542,22.7,53.234,53.234,0,0,1,5.8,29.211c.451-.408.9-.826,1.34-1.239,8.337-7.773,15.742-16.694,20.753-26.991a59.419,59.419,0,0,0,6.222-28.114c-.409-10.62-4.641-20.457-10.767-29.021a124.385,124.385,0,0,0-23.577-24.3,141.336,141.336,0,0,0-29.323-18.1,1.016,1.016,0,0,1-.511-1.3.865.865,0,0,1,.425-.5.753.753,0,0,1,.654.028c1.294.6,2.578,1.2,3.852,1.829A142.942,142.942,0,0,1,841.145,271C849.837,278.412,858.021,286.879,864.136,296.576Z" transform="translate(16335.167 11662.234)" fill="#fff"/>
  </g>
</svg>
