<svg xmlns="http://www.w3.org/2000/svg" width="384" height="271.654" viewBox="0 0 384 271.654">
  <g id="graphic-add" transform="translate(-5872.593 -11496.379)">
    <g id="Group_925" data-name="Group 925" transform="translate(6094.933 11621.383)">
      <path id="Path_4390" data-name="Path 4390" d="M408.643,185.322a73.074,73.074,0,0,1-5.9,28.873l-.243.56a73.443,73.443,0,0,1-79.9,42.789q-.661-.117-1.319-.243a72.668,72.668,0,0,1-13.263-3.911q-1.044-.42-2.074-.87c-.469-.2-.937-.414-1.4-.631a73.329,73.329,0,1,1,104.1-66.567Z" transform="translate(-262 -112)" fill="#fff"/>
      <path id="Path_4391" data-name="Path 4391" d="M429.01,426.961q-.661-.117-1.319-.243a301.509,301.509,0,0,0-4.621-43.232,160.4,160.4,0,0,0-7.907-28.758,89.494,89.494,0,0,0-4.137-9.076c-3.566-6.736-7.892-12.406-13.137-16.248l.772-1.054a45.365,45.365,0,0,1,11.762,13.467q1.565,2.6,3.007,5.54,1.546,3.15,2.948,6.688.895,2.252,1.729,4.66a169.134,169.134,0,0,1,6.174,23.858q.563,2.961,1.072,6.067A307.632,307.632,0,0,1,429.01,426.961Z" transform="translate(-368.412 -281.418)" fill="#f2f2f2" opacity="0.998"/>
      <path id="Path_4392" data-name="Path 4392" d="M415.229,630.508c-.469-.2-.937-.414-1.4-.631a106.5,106.5,0,0,0-2.809-16.831,55.229,55.229,0,0,0-2.562-7.636c-1.738-4.067-3.987-7.525-6.9-9.657l.772-1.052c3.046,2.23,5.395,5.755,7.211,9.879a67.766,67.766,0,0,1,4.319,15.222C414.537,623.638,414.962,627.345,415.229,630.508Z" transform="translate(-371.286 -489.989)" fill="#f2f2f2" opacity="0.998"/>
      <circle id="Ellipse_88" data-name="Ellipse 88" cx="6.527" cy="6.527" r="6.527" transform="translate(15.656 34.902)" fill="#f2f2f2" opacity="0.998"/>
      <circle id="Ellipse_89" data-name="Ellipse 89" cx="6.527" cy="6.527" r="6.527" transform="translate(17.758 91.089)" fill="#f2f2f2" opacity="0.998"/>
      <path id="Path_4393" data-name="Path 4393" d="M482.416,305.155a28.993,28.993,0,0,0,1.671,14.88,26.422,26.422,0,0,0,5.012-28.278A28.993,28.993,0,0,0,482.416,305.155Z" transform="translate(-434.319 -252.762)" opacity="0.2"/>
      <path id="Path_4394" data-name="Path 4394" d="M340.256,404.9a29.137,29.137,0,0,0,14.933.976,26.584,26.584,0,0,0-26.972-9.863A29.136,29.136,0,0,0,340.256,404.9Z" transform="translate(-313.852 -333.968)" fill="#f2f2f2" opacity="0.998"/>
      <path id="Path_4395" data-name="Path 4395" d="M347.459,644.333a20.323,20.323,0,0,0,10.474.664,18.52,18.52,0,0,0-18.905-6.913A20.321,20.321,0,0,0,347.459,644.333Z" transform="translate(-322.318 -523.649)" fill="#f2f2f2" opacity="0.998"/>
      <circle id="Ellipse_90" data-name="Ellipse 90" cx="28.585" cy="28.585" r="28.585" transform="translate(44.587 32.389)" fill="#ffb8b8"/>
      <path id="Path_4396" data-name="Path 4396" d="M547.833,461.72s3.573,16.972,3.573,18.759,16.972,9.826,16.972,9.826l15.186-2.68,5.36-16.079s-8.933-13.4-8.933-18.759Z" transform="translate(-485.828 -378.861)" fill="#ffb8b8"/>
      <path id="Path_4397" data-name="Path 4397" d="M500.81,531.558l-.243.56a73.443,73.443,0,0,1-79.9,42.789q-.661-.117-1.319-.243a72.653,72.653,0,0,1-13.263-3.911q-1.044-.42-2.074-.87c-.469-.2-.937-.414-1.4-.631a73.243,73.243,0,0,1-11.985-7l-3.388-9.829,1.9-1.453,3.918-2.992,4.18-3.191,1.087-.831,16.4-12.521,1.21-.924L424.467,524l0,0s9.219,15.022,22.619,10.556A18.477,18.477,0,0,0,460.2,517.28Z" transform="translate(-360.072 -429.363)" fill="#ccc"/>
      <path id="Path_4398" data-name="Path 4398" d="M460.768,229.86s9.076-19.664,26.47-15.126,27.227,11.344,27.983,18.151-.378,17.017-.378,17.017-1.891-13.991-13.991-10.966-31.008.756-31.008.756l-3.025,27.227s-3.4-4.916-7.185-1.891S448.667,235.91,460.768,229.86Z" transform="translate(-412.385 -191.916)" fill="#2f2e41"/>
      <path id="Path_4399" data-name="Path 4399" d="M393,697.6q-1.045-.42-2.074-.87c-.469-.2-.937-.414-1.4-.631a73.5,73.5,0,0,1-19-12.734,25.706,25.706,0,0,1,3.627-4.1h13.4l2.009,6.755Z" transform="translate(-346.979 -556.213)" fill="#ccc"/>
      <path id="Path_4400" data-name="Path 4400" d="M853.718,576.32l11.495,2.031A73.305,73.305,0,0,1,852.9,597.564Z" transform="translate(-724.717 -475.596)" fill="#ccc"/>
    </g>
    <path id="Path_4371" data-name="Path 4371" d="M877.682,305.707c-5.3,18.376-20.764,31.24-36.9,42.167q-3.379,2.289-6.76,4.473c-.015.007-.031.021-.047.028-.108.07-.217.139-.318.21l-1.392.9.253.114s.249.132-.023.021c-.081-.034-.166-.064-.247-.1-9.373-3.78-18.912-7.839-26.095-14.92-7.451-7.354-11.806-18.888-7.771-28.548a18.443,18.443,0,0,1,2-3.585c.327-.468.68-.916,1.047-1.356a19.77,19.77,0,0,1,33.956,6.008c1.185-11.036-7.915-20.28-16.672-27.1S800,269.772,798.3,258.8c-.946-6.106,1.178-12.024,5.046-16.774.12-.144.239-.288.363-.429a28.852,28.852,0,0,1,18.545-9.949c13.434-1.4,26.484,5.715,36.244,15.056C874.207,261.729,883.7,284.813,877.682,305.707Z" transform="translate(5377.084 11279.343)" fill="#bde06c"/>
    <path id="Path_4372" data-name="Path 4372" d="M855.26,289.732a49.049,49.049,0,0,1,5.876,12.96,42.588,42.588,0,0,1,1.472,12.578,54.566,54.566,0,0,1-7.147,24.833,78.535,78.535,0,0,1-11.847,15.831q-3.379,2.289-6.76,4.473c-.015.007-.031.021-.046.028-.108.07-.217.139-.318.21l-1.392.9s.5.246.23.135c-.081-.034-.166-.064-.247-.1a43.029,43.029,0,0,0-31.868-47.053c.327-.468.68-.917,1.047-1.356A45.4,45.4,0,0,1,811.752,316a44.482,44.482,0,0,1,20.112,19.39,45.478,45.478,0,0,1,4.951,24.955c.385-.349.771-.705,1.145-1.059,7.122-6.64,13.448-14.262,17.729-23.058a50.762,50.762,0,0,0,5.316-24.018c-.349-9.073-3.964-17.477-9.2-24.793a106.262,106.262,0,0,0-20.142-20.758A120.744,120.744,0,0,0,806.614,251.2a.868.868,0,0,1-.437-1.114.739.739,0,0,1,.363-.429.643.643,0,0,1,.558.024c1.105.509,2.2,1.024,3.291,1.562a122.117,122.117,0,0,1,25.229,16.642C843.044,274.214,850.036,281.448,855.26,289.732Z" transform="translate(5374.254 11271.283)" fill="#fff"/>
    <rect id="Rectangle_655" data-name="Rectangle 655" width="301.227" height="1.207" transform="translate(5873.197 11513.309)" fill="#ff6601"/>
    <circle id="Ellipse_85" data-name="Ellipse 85" cx="3.622" cy="3.622" r="3.622" transform="translate(5879.836 11501.815)" fill="#ff6601"/>
    <circle id="Ellipse_86" data-name="Ellipse 86" cx="3.622" cy="3.622" r="3.622" transform="translate(5890.249 11501.815)" fill="#ff6601"/>
    <circle id="Ellipse_87" data-name="Ellipse 87" cx="3.622" cy="3.622" r="3.622" transform="translate(5900.663 11501.815)" fill="#ff6601"/>
    <path id="Path_4380" data-name="Path 4380" d="M540.349,355.9H369.383a3.875,3.875,0,1,1,0-7.749H540.349a3.875,3.875,0,1,1,0,7.749Z" transform="translate(5568.836 11227.47)" fill="#ccc"/>
    <path id="Path_4381" data-name="Path 4381" d="M540.349,430.893H369.383a3.875,3.875,0,1,1,0-7.749H540.349a3.875,3.875,0,1,1,0,7.749Z" transform="translate(5568.836 11194.133)" fill="#e6e6e6"/>
    <path id="Path_4382" data-name="Path 4382" d="M540.349,459.667H369.383a3.875,3.875,0,0,1,0-7.749H540.349a3.875,3.875,0,1,1,0,7.749Z" transform="translate(5568.836 11181.342)" fill="#e6e6e6"/>
    <path id="Path_4383" data-name="Path 4383" d="M534.789,326.259H419.521a3.875,3.875,0,0,1,0-7.749H534.789a3.875,3.875,0,0,1,0,7.749Z" transform="translate(5546.548 11240.647)" fill="#ccc"/>
    <path id="Path_4384" data-name="Path 4384" d="M429.831,402.118H369.775a3.875,3.875,0,0,1,0-7.749h60.056a3.875,3.875,0,1,1,0,7.749Z" transform="translate(5568.663 11206.924)" fill="#e6e6e6"/>
    <path id="Path_4385" data-name="Path 4385" d="M629.507,402.118H569.451a3.875,3.875,0,0,1,0-7.749h60.056a3.875,3.875,0,0,1,0,7.749Z" transform="translate(5479.896 11206.924)" fill="#e6e6e6"/>
    <path id="Path_4386" data-name="Path 4386" d="M552.54,205.485H258.553a4.228,4.228,0,0,0-4.221,4.227V408.923a4.227,4.227,0,0,0,4.221,4.221h219.84c-.056-.4-.1-.805-.145-1.205h-219.7a3.019,3.019,0,0,1-3.016-3.016V209.712a3.024,3.024,0,0,1,3.016-3.022H552.54a3.025,3.025,0,0,1,3.022,3.022V331.8c.4.028.806.061,1.206.1V209.712a4.229,4.229,0,0,0-4.227-4.227Z" transform="translate(5618.261 11290.894)" fill="#ff6601"/>
    <path id="Path_4387" data-name="Path 4387" d="M656.348,513.182c-.055-.4-.1-.805-.145-1.205-.011-.061-.016-.117-.022-.178q-.242-2.191-.35-4.427-.458,1.925-.827,3.866c.016.189.033.372.055.561.006.061.011.117.022.178.044.4.089.805.145,1.205.155,1.239.344,2.461.566,3.677.005-.05.011-.094.017-.144.156-1.172.333-2.338.544-3.5A.052.052,0,0,1,656.348,513.182Zm78.374-82.356c-.4-.039-.805-.072-1.206-.1-.061-.006-.117-.006-.178-.011-1.778-.133-3.577-.2-5.388-.2A73.342,73.342,0,0,0,655,511.238c.017.189.034.372.055.561.006.061.011.117.022.178.044.4.089.805.145,1.205.155,1.239.344,2.461.567,3.677a73.638,73.638,0,0,0,44.03,54.684c1.155.478,2.322.933,3.5,1.35.778.283,1.555.544,2.344.794.567.183,1.139.356,1.711.522.811.239,1.633.467,2.461.678a72.961,72.961,0,0,0,59.777-10.765h.006a73.3,73.3,0,0,0-34.9-133.3Zm34.421,132.28a71.859,71.859,0,0,1-10.737,6.193,71.093,71.093,0,0,1-8.3,3.266,72.336,72.336,0,0,1-39.481,1.372q-1.466-.358-2.91-.783-1.425-.417-2.822-.883c-.761-.261-1.522-.528-2.277-.811-.789-.3-1.566-.611-2.344-.933a72.394,72.394,0,0,1-43.919-57.316.052.052,0,0,1-.005-.028c-.055-.4-.1-.805-.145-1.205-.011-.061-.016-.117-.022-.178q-.242-2.191-.35-4.427-.092-1.758-.089-3.538a72.287,72.287,0,0,1,72.208-72.208c1.811,0,3.61.067,5.388.2l.178.017c.4.028.805.061,1.206.1A72.185,72.185,0,0,1,769.15,563.1Zm-66.526,8.354c-.789-.3-1.566-.611-2.344-.933a72.394,72.394,0,0,1-43.919-57.316c-.211,1.166-.389,2.333-.544,3.5-.005.05-.011.095-.017.144a73.638,73.638,0,0,0,44.03,54.684c1.155.478,2.322.933,3.5,1.35-.244-.472-.483-.95-.711-1.433Zm30.722-140.745c-1.778-.133-3.577-.2-5.388-.2A73.342,73.342,0,0,0,655,511.238c.016.189.033.372.055.561.006.061.011.117.022.178H656.2c-.011-.061-.017-.117-.022-.178q-.242-2.191-.35-4.427-.092-1.758-.089-3.538a72.287,72.287,0,0,1,72.208-72.208c1.811,0,3.61.067,5.388.2l.178.017v-1.116c-.061-.006-.117-.006-.178-.011Z" transform="translate(5440.306 11190.856)" fill="#ff6601"/>
    <g id="Group_926" data-name="Group 926" transform="translate(6210.964 11640.137)">
      <path id="Path_4388" data-name="Path 4388" d="M880.41,464.3c22.52.385,22.516,33.883,0,34.264C857.89,498.181,857.893,464.683,880.41,464.3Z" transform="translate(-863.521 -464.302)" fill="#ff6601"/>
      <path id="Path_4389" data-name="Path 4389" d="M886.461,497.008a1.205,1.205,0,0,1-1.2-1.2V489.42a.537.537,0,0,0-.537-.537h-6.384a1.2,1.2,0,0,1,0-2.408h6.384a.537.537,0,0,0,.537-.536v-6.384a1.2,1.2,0,0,1,2.408,0v6.384a.537.537,0,0,0,.537.536h6.384a1.2,1.2,0,1,1,0,2.408H888.2a.537.537,0,0,0-.537.537V495.8A1.205,1.205,0,0,1,886.461,497.008Z" transform="translate(-869.572 -470.546)" fill="#fff"/>
    </g>
  </g>
</svg>
