<svg id="oading-state" xmlns="http://www.w3.org/2000/svg" width="32" height="32.811" viewBox="0 0 32 32.811">
  <path id="Path_4166" data-name="Path 4166" d="M1.621,3.243A1.621,1.621,0,1,0,0,1.621,1.621,1.621,0,0,0,1.621,3.243Z" transform="translate(13.782 0)" fill="#ff6601"/>
  <path id="Path_4167" data-name="Path 4167" d="M18.588,0a3.279,3.279,0,0,1,.058.582,3.2,3.2,0,0,1-.4,1.532,13.856,13.856,0,1,1-5.561.221A3.213,3.213,0,0,1,12.161.582a3.19,3.19,0,0,1,.034-.334A16,16,0,1,0,18.588,0Z" transform="translate(0 1.039)" fill="#ff6601"/>
</svg>
