<svg xmlns="http://www.w3.org/2000/svg" width="15.244" height="19" viewBox="0 0 15.244 19">
  <path id="permits" d="M150.126,216a.708.708,0,0,1-.27-.074c-.7-.373-6.856-3.808-6.856-9.051V202.2a.574.574,0,0,1,.512-.58c4.138-.426,5.713-2.6,6.1-3.264l.02-.036a.574.574,0,0,1,.513-.324h0a.555.555,0,0,1,.505.325c.144.288,1.542,2.832,6.082,3.3h0a.558.558,0,0,1,.509.557v4.692c0,5.25-6.151,8.676-6.853,9.05l-.019.01a.416.416,0,0,1-.226.067Zm-.055-16.32a8.916,8.916,0,0,1-5.868,3.009l-.061.006v4.185a7.521,7.521,0,0,0,2.512,5.22,17.189,17.189,0,0,0,3.433,2.639l.035.02.034-.02c1.395-.816,5.945-3.792,5.945-7.859v-4.185l-.061-.006a8.917,8.917,0,0,1-5.867-3.009l-.051-.057Zm.03,12.777a.572.572,0,0,1-.4-.184.58.58,0,0,1-.156-.419V207.2l-.051-.014a2.4,2.4,0,1,1,1.263,0l-.051.014v2.7h.874a.209.209,0,0,1,.039,0,.581.581,0,0,1,.559.6.574.574,0,0,1-.184.4.581.581,0,0,1-.4.156H150.7v.833a.582.582,0,0,1-.58.56Zm-1.23-7.584a1.251,1.251,0,1,0,1.251-1.25A1.254,1.254,0,0,0,148.871,204.871Z" transform="translate(-142.5 -197.5)" fill="#ff6601" stroke="rgba(0,0,0,0)" stroke-miterlimit="10" stroke-width="1"/>
</svg>
