<svg xmlns="http://www.w3.org/2000/svg" width="15.896" height="15.896" viewBox="0 0 15.896 15.896">
  <g id="success" transform="translate(0.5 0.5)">
    <path id="Path_3821" data-name="Path 3821" d="M538.023,435.619a7.448,7.448,0,1,1,7.448-7.448A7.448,7.448,0,0,1,538.023,435.619Zm0-14.64a7.191,7.191,0,1,0,7.191,7.191A7.191,7.191,0,0,0,538.023,420.979Z" transform="translate(-530.575 -420.723)" fill="#26aa4a" stroke="#26aa4a" stroke-width="1"/>
    <path id="Path_3824" data-name="Path 3824" d="M560.824,456.384a.957.957,0,0,1-.576-.191l-.01-.008-2.171-1.662a.964.964,0,0,1,1.173-1.531l1.406,1.078,3.323-4.333a.964.964,0,0,1,1.352-.178l-.021.028.021-.028a.966.966,0,0,1,.178,1.352l-3.908,5.1A.965.965,0,0,1,560.824,456.384Z" transform="translate(-554.207 -445.681)" fill="#26aa4a"/>
  </g>
</svg>
