<svg xmlns="http://www.w3.org/2000/svg" width="16" height="15.999" viewBox="0 0 16 15.999">
  <path id="user-widget" d="M422.333,378.2a8,8,0,1,0,8,8A8.009,8.009,0,0,0,422.333,378.2Zm0,14.97h-.009a6.929,6.929,0,0,1-3.572-.992,3.644,3.644,0,0,1,7.162,0,6.919,6.919,0,0,1-3.482.994v0Zm-2.812-7.8a2.812,2.812,0,1,1,2.812,2.812,2.816,2.816,0,0,1-2.812-2.812Zm7.3,6.166a4.718,4.718,0,0,0-2.467-2.9,3.842,3.842,0,1,0-4.033,0,4.718,4.718,0,0,0-2.466,2.9,6.97,6.97,0,1,1,9.917-.97A7.051,7.051,0,0,1,426.817,391.536Z" transform="translate(-414.333 -378.203)" fill="#ff6601"/>
</svg>
