<svg xmlns="http://www.w3.org/2000/svg" width="18.001" height="18" viewBox="0 0 18.001 18">
  <path id="user" d="M423.333,378.2a9,9,0,1,0,9,9A9.011,9.011,0,0,0,423.333,378.2Zm0,16.842h-.01a7.8,7.8,0,0,1-4.019-1.116,4.1,4.1,0,0,1,8.058,0,7.785,7.785,0,0,1-3.917,1.118v0Zm-3.164-8.779a3.164,3.164,0,1,1,3.164,3.164,3.168,3.168,0,0,1-3.164-3.164Zm8.209,6.937a5.308,5.308,0,0,0-2.775-3.258,4.322,4.322,0,1,0-4.538,0,5.308,5.308,0,0,0-2.774,3.257,7.842,7.842,0,1,1,11.157-1.091A7.929,7.929,0,0,1,428.378,393.2Z" transform="translate(-414.333 -378.203)" fill="#ff6601"/>
</svg>
