<svg id="warning" xmlns="http://www.w3.org/2000/svg" width="17.633" height="16.117" viewBox="0 0 17.633 16.117">
  <path id="Path_3922" data-name="Path 3922" d="M5.689,22.717H17.034a3.143,3.143,0,0,0,2.73-1.578,3.067,3.067,0,0,0,0-3.138L14.082,8.178a3.117,3.117,0,0,0-5.422,0L2.978,18.019A3.145,3.145,0,0,0,3,21.176,3.065,3.065,0,0,0,5.689,22.717ZM4.2,18.725,9.885,8.884a1.685,1.685,0,0,1,1.485-.854,1.665,1.665,0,0,1,1.485.873l5.682,9.841a1.7,1.7,0,0,1,0,1.708,1.732,1.732,0,0,1-1.5.873H5.689A1.707,1.707,0,0,1,4.2,20.47,1.82,1.82,0,0,1,4.2,18.725Zm8.059.13a.9.9,0,1,1-.891-.928A.889.889,0,0,1,12.262,18.855Zm-1.745-5.44c-.019-.3-.037-.576-.056-.873a.967.967,0,0,1,.706-.984.916.916,0,0,1,1.058.52,1.248,1.248,0,0,1,.074.446c-.019.446-.056.91-.074,1.355-.037.706-.074,1.393-.13,2.1-.019.223-.019.427-.019.65a.689.689,0,0,1-1.374.019C10.628,15.587,10.572,14.51,10.516,13.415Z" transform="translate(-2.562 -6.6)" fill="#f5ac09"/>
</svg>
